<svg xmlns="http://www.w3.org/2000/svg" width="1320" height="877" viewBox="0 0 1320 877" version="1.1"><path d="M 70 581.446 L 70 602.892 83.502 603.196 L 97.003 603.500 97.002 581.750 L 97 560 83.500 560 L 70 560 70 581.446" stroke="none" fill="#a6c71d" fill-rule="evenodd"/><path d="M 97 624.500 L 97 646 108.750 646.005 C 115.213 646.008, 124.888 646.301, 130.250 646.656 L 140 647.302 140 625.151 L 140 603 118.500 603 L 97 603 97 624.500" stroke="none" fill="#e72487" fill-rule="evenodd"/><path d="M 650.224 21.409 C 644.273 23.351, 641.635 25.227, 632.750 33.837 L 625 41.347 625 85.920 L 625 130.493 642.243 113.249 L 659.487 96.006 678.243 114.743 L 697 133.480 697 88.971 L 697 44.462 687.250 34.829 C 681.888 29.530, 675.475 24.180, 673 22.939 C 667.397 20.131, 656.405 19.393, 650.224 21.409 M 276.382 328.250 C 263.643 341.145, 259 346.662, 259 348.904 C 259 349.693, 297.499 350, 396.500 350 C 472.125 350, 534 349.618, 534 349.150 C 534 347.894, 528.689 340.904, 525.379 337.804 C 523.795 336.321, 520.250 334.071, 517.500 332.804 L 512.500 330.500 438.050 330.225 L 363.600 329.950 371.025 322.475 L 378.450 315 333.961 315 L 289.472 315 276.382 328.250 M 586 332.500 L 603.479 350 659.500 350 L 715.521 350 733 332.500 L 750.479 315 705.939 315 C 675.200 315, 661.063 315.337, 660.313 316.087 C 659.530 316.870, 659.038 316.870, 658.554 316.087 C 658.086 315.331, 644.297 315, 613.202 315 L 568.521 315 586 332.500 M 948 322.500 L 955.450 330 882.760 330 C 802.934 330, 805.484 329.820, 796.365 336.093 C 792.659 338.643, 786 347.045, 786 349.171 C 786 349.627, 847.875 350, 923.500 350 C 999.125 350, 1061 349.650, 1061 349.223 C 1061 347.383, 1056.877 342.644, 1043.625 329.250 L 1029.526 315 985.038 315 L 940.550 315 948 322.500 M 103.326 756.042 C 92.772 758.135, 81.377 766.381, 75.739 776.003 C 71.991 782.400, 69.998 791.083, 70.012 800.960 C 70.039 820.615, 78.383 834.549, 94.777 842.315 L 101.500 845.500 661 845.500 L 1220.500 845.500 1227.223 842.315 C 1239.547 836.477, 1248.196 825.772, 1251.034 812.844 C 1252.770 804.941, 1251.831 788.974, 1249.238 782.281 C 1245.021 771.397, 1236.339 762.649, 1224.958 757.817 L 1219.500 755.500 663.500 755.357 C 357.700 755.278, 105.622 755.586, 103.326 756.042 M 610.250 764.778 L 603 768.437 603 772.718 C 603 775.073, 603.123 777, 603.273 777 C 603.423 777, 607.136 775.493, 611.523 773.650 L 619.500 770.300 619.805 765.650 C 620.177 759.967, 619.843 759.937, 610.250 764.778 M 122.309 780.533 C 113.295 785.025, 108.916 795.012, 111.043 806.227 C 112.394 813.352, 115.731 817.991, 121.932 821.366 C 126.646 823.932, 127.901 824.171, 134.993 823.849 C 141.802 823.540, 143.409 823.091, 147.161 820.455 C 153.169 816.232, 155.963 810.942, 155.984 803.750 L 156 798 143.500 798 L 131 798 131 802.500 L 131 807 137.500 807 C 141.075 807, 144 807.372, 144 807.826 C 144 809.319, 139.553 812.839, 136.803 813.521 C 135.320 813.889, 132.472 813.651, 130.476 812.992 C 125.700 811.416, 123.009 806.971, 123.004 800.650 C 123.001 796.465, 123.466 795.334, 126.400 792.400 C 130.446 788.354, 135.899 787.792, 140 791 C 141.864 792.458, 144.091 792.961, 148.750 792.978 C 155.432 793.002, 155.869 792.571, 153.595 788.200 C 148.551 778.506, 133.687 774.863, 122.309 780.533 M 170.296 781.004 C 162.615 785.409, 159.500 791.178, 159.500 801 C 159.500 807.317, 159.918 809.210, 162.152 813 C 166.809 820.902, 172.787 824.125, 182.785 824.125 C 196.676 824.125, 206 814.837, 206 801 C 206 786.915, 196.852 777.990, 182.434 778.009 C 176.577 778.017, 174.692 778.482, 170.296 781.004 M 211 801 L 211 824 224.032 824 C 238.419 824, 242.259 823.029, 245.832 818.486 C 247.321 816.594, 248 814.331, 248 811.265 C 248 807.553, 247.452 806.258, 244.750 803.586 L 241.500 800.373 243.877 798.388 C 245.620 796.933, 246.383 795.070, 246.735 791.406 C 247.152 787.064, 246.865 785.993, 244.543 783.234 C 240.997 779.019, 236.799 778.012, 222.750 778.006 L 211 778 211 801 M 253 801 L 253 824 259 824 L 265 824 265 801 L 265 778 259 778 L 253 778 253 801 M 272 801 L 272 824 286.500 824 L 301 824 301 819 L 301 814 292.500 814 L 284 814 284 809.500 L 284 805 291.500 805 L 299 805 299 800.500 L 299 796 291.500 796 L 284 796 284 792 L 284 788 292.500 788 L 301 788 301 783 L 301 778 286.500 778 L 272 778 272 801 M 307 800.900 L 307 824 313 824 L 319 824 319 815.441 C 319 810.317, 319.380 807.117, 319.946 807.466 C 320.466 807.788, 322.828 811.639, 325.196 816.024 L 329.500 823.998 336.250 823.999 C 339.962 824, 343 823.787, 343 823.526 C 343 823.265, 340.802 819.336, 338.115 814.795 L 333.229 806.539 336.060 804.817 C 340.110 802.354, 342.298 798.511, 342.397 793.688 C 342.516 787.816, 340.375 783.397, 336.132 780.759 C 332.960 778.786, 330.886 778.456, 319.750 778.150 L 307 777.799 307 800.900 M 348 801 L 348 824 354 824 L 360 824 360.005 810.750 L 360.009 797.500 368.755 810.727 L 377.500 823.955 383.750 823.977 L 390 824 390 801 L 390 778 384.029 778 L 378.058 778 377.779 791.204 L 377.500 804.407 369 791.266 L 360.500 778.125 354.250 778.063 L 348 778 348 801 M 407.500 779.896 C 399.240 783.720, 394.986 790.989, 395.022 801.218 C 395.072 815.399, 404.187 824.270, 418.625 824.186 C 427.859 824.133, 435.266 819.578, 439.252 811.500 C 444.945 799.965, 439.893 785.036, 428.556 779.886 C 423.114 777.415, 412.849 777.419, 407.500 779.896 M 465.500 800.127 C 461.100 812.325, 457.350 822.686, 457.167 823.152 C 456.983 823.618, 459.778 824, 463.377 824 L 469.920 824 471.129 819.962 L 472.339 815.925 480.333 816.212 L 488.327 816.500 489.499 820 C 490.651 823.443, 490.771 823.505, 496.835 823.798 C 501.393 824.018, 502.987 823.757, 502.950 822.798 C 502.922 822.084, 499.393 811.825, 495.106 800 L 487.313 778.500 480.406 778.225 L 473.500 777.950 465.500 800.127 M 507.044 793.750 C 507.101 814.265, 508.576 818.673, 516.667 822.512 C 520.795 824.471, 529.235 824.738, 534.291 823.069 C 538.755 821.596, 543.548 816.288, 544.940 811.277 C 545.517 809.200, 545.991 800.862, 545.994 792.750 L 546 778 540 778 L 534 778 534 792.865 C 534 806.390, 533.813 807.968, 531.927 810.365 C 529.565 813.369, 524.666 813.937, 521.441 811.583 C 519.684 810.300, 519.470 808.640, 519.181 794.083 L 518.862 778 512.931 778 L 507 778 507.044 793.750 M 550 783 L 550 788 556 788 L 562 788 562 806 L 562 824 568 824 L 574 824 574 806 L 574 788 580 788 L 586 788 586 783 L 586 778 568 778 L 550 778 550 783 M 600.927 779.977 C 588.323 786.640, 584.374 803.265, 592.580 815.114 C 600.306 826.269, 620.161 827.414, 629.112 817.219 C 633.518 812.202, 635.003 808.039, 634.978 800.782 C 634.943 790.618, 630.268 783.098, 621.782 779.553 C 616.514 777.353, 605.467 777.577, 600.927 779.977 M 640 801 L 640 824 646 824 L 652 824 652.005 810.750 L 652.009 797.500 660.755 810.727 L 669.500 823.955 675.250 823.977 L 681 824 681 801 L 681 778 675.529 778 L 670.058 778 669.779 791.146 L 669.500 804.292 660.746 791.146 L 651.992 778 645.996 778 L 640 778 640 801 M 699.500 779.896 C 691.240 783.720, 686.986 790.989, 687.022 801.218 C 687.072 815.399, 696.187 824.270, 710.625 824.186 C 724.074 824.109, 733.294 814.684, 733.294 801.014 C 733.294 790.975, 728.358 783.136, 719.782 779.553 C 714.655 777.411, 704.495 777.583, 699.500 779.896 M 739 801 L 739 824 745 824 L 751 824 751.060 812.750 L 751.119 801.500 755.310 812.745 L 759.500 823.991 764.549 823.995 L 769.598 824 773.750 812.750 L 777.902 801.500 777.951 812.750 L 778 824 784 824 L 790 824 790 801 L 790 778 783.250 778.005 L 776.500 778.009 770.576 793.027 L 764.651 808.044 758.576 793.029 L 752.500 778.015 745.750 778.007 L 739 778 739 801 M 809 779.594 C 800.577 783.243, 795.641 791.148, 795.636 801 C 795.629 814.905, 804.976 824.176, 819 824.176 C 833.205 824.176, 842.028 815.194, 841.978 800.782 C 841.943 790.618, 837.268 783.098, 828.782 779.553 C 824.074 777.586, 813.585 777.608, 809 779.594 M 861 801 L 861 824 867 824 L 873 824 873.053 812.250 L 873.107 800.500 877.434 812 L 881.762 823.500 886.775 823.799 L 891.788 824.097 894.543 816.799 C 896.058 812.784, 898.106 807.475, 899.095 805 L 900.891 800.500 900.945 812.250 L 901 824 907 824 L 913 824 913 800.956 L 913 777.912 905.880 778.206 L 898.760 778.500 893.130 792.743 C 890.033 800.577, 887.273 806.989, 886.995 806.993 C 886.717 806.997, 885.406 804.188, 884.082 800.750 C 882.758 797.313, 880.128 790.788, 878.237 786.250 L 874.800 778 867.900 778 L 861 778 861 801 M 920 795.114 C 920 810.692, 920.190 812.566, 922.118 815.996 C 925.206 821.491, 930.520 824.125, 938.520 824.125 C 947.183 824.125, 952.611 821.262, 955.750 815.038 C 957.809 810.956, 958 809.191, 958 794.288 L 958 778 952 778 L 946 778 946 793.500 C 946 807.667, 945.828 809.172, 944 811 C 941.306 813.694, 935.891 813.642, 933.405 810.897 C 931.741 809.060, 931.457 806.844, 931.160 793.397 L 930.821 778 925.410 778 L 920 778 920 795.114 M 965 801 L 965 824 971 824 L 977 824 977 811.256 L 977 798.512 985.512 811.256 L 994.023 824 1000.012 824 L 1006 824 1006 801 L 1006 778 1000 778 L 994 778 993.975 791.250 L 993.950 804.500 985.286 791.250 L 976.622 778 970.811 778 L 965 778 965 801 M 1013 801 L 1013 824 1019 824 L 1025 824 1025 801 L 1025 778 1019 778 L 1013 778 1013 801 M 1042.500 779.844 C 1034.198 783.795, 1029.986 791.009, 1030.022 801.218 C 1030.071 815.377, 1038.888 824.028, 1053.218 823.978 C 1063.339 823.943, 1070.065 819.876, 1073.466 811.736 L 1075.027 808 1068.559 808 C 1062.993 808, 1061.742 808.349, 1059.591 810.500 C 1055.807 814.284, 1049.357 814.026, 1045.437 809.934 C 1042.853 807.237, 1042.500 806.146, 1042.500 800.852 C 1042.500 795.321, 1042.763 794.601, 1045.766 791.918 C 1050.102 788.044, 1055.620 787.892, 1059.275 791.548 C 1061.571 793.844, 1062.476 794.066, 1068.434 793.798 L 1075.046 793.500 1072.773 789.013 C 1071.439 786.381, 1068.710 783.283, 1066.169 781.517 C 1062.415 778.908, 1060.817 778.470, 1054.169 778.224 C 1048.263 778.006, 1045.581 778.378, 1042.500 779.844 M 1080 801 L 1080 824 1086 824 L 1092 824 1092 801 L 1092 778 1086 778 L 1080 778 1080 801 M 1099 801 L 1099 824 1105 824 L 1111 824 1111 816 L 1111 808 1116.532 808 C 1123.386 808, 1127.789 806.228, 1131.297 802.059 C 1133.565 799.364, 1134 797.898, 1134 792.958 C 1134 787.806, 1133.614 786.630, 1130.918 783.559 C 1126.958 779.049, 1123.007 778.012, 1109.750 778.006 L 1099 778 1099 801 M 1144.564 799.750 C 1140.233 811.712, 1136.486 822.063, 1136.237 822.750 C 1135.906 823.667, 1137.502 824, 1142.235 824 L 1148.683 824 1149.882 820 L 1151.080 816 1159 816 L 1166.920 816 1168.118 820 L 1169.317 824 1175.658 824 C 1179.146 824, 1182 823.639, 1182 823.199 C 1182 822.440, 1169.224 786.609, 1166.865 780.750 C 1165.812 778.136, 1165.428 778, 1159.099 778 L 1152.440 778 1144.564 799.750 M 1186 801 L 1186 824 1199 824 L 1212 824 1212 819.500 L 1212 815 1205 815 L 1198 815 1198 796.500 L 1198 778 1192 778 L 1186 778 1186 801 M 179.643 789.102 C 173.325 790.832, 170.012 797.617, 171.957 804.841 C 174.554 814.485, 186.154 816.331, 191.804 808 C 198.014 798.844, 189.931 786.285, 179.643 789.102 M 223 792 L 223 796 227.800 796 C 234.447 796, 236.973 793.116, 233.429 789.571 C 232.473 788.616, 230.121 788, 227.429 788 L 223 788 223 792 M 319 793 L 319 798 323.300 798 C 328.296 798, 330 796.687, 330 792.835 C 330 789.546, 327.623 788, 322.566 788 L 319 788 319 793 M 416 788.942 C 410.272 790.220, 407 794.538, 407 800.818 C 407 808.444, 411.107 813.085, 417.938 813.180 C 425.070 813.278, 429.003 808.875, 428.996 800.800 C 428.993 797.336, 426.114 790, 424.758 790 C 424.609 790, 423.140 789.636, 421.493 789.192 C 419.847 788.748, 417.375 788.635, 416 788.942 M 607.900 789.431 C 603.157 791.009, 600.769 794.825, 600.769 800.827 C 600.769 812.402, 611.992 817.462, 619.971 809.484 C 622.106 807.349, 622.500 806.034, 622.500 801.043 C 622.500 795.910, 622.126 794.740, 619.659 792.166 C 616.419 788.784, 612.550 787.884, 607.900 789.431 M 708.500 788.741 C 702.287 789.865, 699 794.122, 699 801.046 C 699 808.450, 703.183 813.086, 709.947 813.180 C 716.940 813.276, 721.003 808.688, 720.996 800.703 C 720.993 797.330, 718.091 790, 716.758 790 C 716.609 790, 715.140 789.635, 713.493 789.190 C 711.847 788.744, 709.600 788.543, 708.500 788.741 M 815.212 789.139 C 806.876 791.517, 805.248 806.656, 812.796 811.602 C 815.703 813.507, 821.970 813.660, 824.795 811.896 C 827.901 809.956, 830 805.562, 830 801 C 830 792.194, 823.310 786.829, 815.212 789.139 M 1111 793 L 1111 798 1115.300 798 C 1120.296 798, 1122 796.687, 1122 792.835 C 1122 789.546, 1119.623 788, 1114.566 788 L 1111 788 1111 793 M 478.165 798.976 C 476.974 802.503, 476 805.751, 476 806.194 C 476 806.637, 478.055 807, 480.567 807 C 485.686 807, 485.546 807.910, 482.019 797.532 L 480.331 792.564 478.165 798.976 M 1158.815 794.551 C 1157.603 796.646, 1154.829 806.162, 1155.294 806.627 C 1155.568 806.901, 1157.567 806.985, 1159.738 806.813 L 1163.683 806.500 1161.524 800.051 C 1160.336 796.504, 1159.117 794.029, 1158.815 794.551 M 223 809.500 L 223 814 228.300 814 C 233.813 814, 236 812.823, 236 809.857 C 236 807.202, 232.044 805, 227.277 805 L 223 805 223 809.500" stroke="none" fill="#e20917" fill-rule="evenodd"/><path d="M 1121.955 514.099 C 1107.196 516.008, 1087.576 523.460, 1075.226 531.846 C 1050.910 548.360, 1034.318 572.688, 1027.763 601.441 C 1025.103 613.108, 1024.888 636.781, 1027.342 647.725 C 1037.048 691.008, 1067.135 722.148, 1110.969 734.278 C 1117.346 736.043, 1121.335 736.363, 1137 736.366 C 1153.835 736.369, 1156.377 736.133, 1165.242 733.744 C 1205.192 722.979, 1235.200 693.121, 1246.043 653.344 C 1248.783 643.294, 1249.840 618.506, 1248.012 607.167 C 1238.417 547.645, 1182.393 506.283, 1121.955 514.099 M 198.500 516.523 C 192.998 518.051, 182.134 518.314, 174.750 517.099 L 170 516.317 170 527.159 L 170 538 173.929 538 C 180.432 538, 181 539.290, 181 554.071 L 181 567 186.912 567 L 192.824 567 193.461 563.231 C 194.742 555.651, 197.888 551.867, 207.013 546.936 C 212.911 543.748, 216.050 541.367, 217.400 539.055 C 221.564 531.924, 218.246 519.254, 211.473 516.424 C 207.340 514.698, 205.011 514.715, 198.500 516.523 M 72.455 518.455 C 70.020 520.889, 70 521.067, 70 539.955 L 70 559 83.500 559 L 97 559 97 581 L 97 603 112.500 603 L 128 603 128 585 L 128 567 147.500 567 L 167 567 167 541.500 L 167 516 120.955 516 L 74.909 516 72.455 518.455 M 261.635 518.073 L 259 520.145 259 624.850 C 259 717.998, 259.172 729.800, 260.557 731.777 C 262.106 733.990, 262.248 734, 292.057 734 L 322 734 322 708 L 322 682 319.517 682 L 317.035 682 316.767 600.911 L 316.500 519.823 314.139 517.911 C 311.963 516.149, 309.921 516, 288.024 516 C 265.507 516, 264.133 516.108, 261.635 518.073 M 543.367 517.772 C 542.194 518.723, 540.765 520.420, 540.192 521.543 C 539.018 523.847, 461.022 725.539, 460.264 728.232 C 459.641 730.444, 463.111 731.818, 472.205 732.960 C 493.705 735.659, 515.304 724.524, 525.023 705.730 L 528.500 699.007 567 699.007 L 605.500 699.007 608.977 705.730 C 618.646 724.429, 640.385 735.648, 661.751 732.965 C 670.863 731.821, 674.352 730.447, 673.765 728.232 C 672.995 725.332, 595.870 526.716, 594.264 523.500 C 593.440 521.850, 591.840 519.487, 590.709 518.250 C 588.696 516.048, 588.188 516, 567.076 516.022 C 548.144 516.042, 545.239 516.256, 543.367 517.772 M 698.455 518.455 L 696 520.909 696 625.455 C 696 728.667, 696.026 730.026, 698 732 C 699.910 733.910, 701.333 734, 729.500 734 L 759 734 759 707.500 L 759 681 756.500 681 L 754 681 754 600.955 L 754 520.909 751.545 518.455 L 749.091 516 725 516 L 700.909 516 698.455 518.455 M 846.315 517.007 C 842.428 518.573, 842 521.030, 842 541.799 C 842 560.449, 842.133 561.900, 844.073 564.365 L 846.145 567 872.555 567 L 898.966 567 899.233 648.589 L 899.500 730.177 901.861 732.089 C 904.038 733.851, 906.081 734, 928.156 734 L 952.091 734 954.545 731.545 L 957 729.091 957 648.045 L 957 567 983.500 567 C 1008.667 567, 1010.101 566.899, 1012 565 C 1013.876 563.124, 1014 561.667, 1014 541.573 L 1014 520.145 1011.365 518.073 C 1008.911 516.142, 1007.437 516, 989.826 516 C 979.429 516, 963.178 516.468, 953.711 517.040 C 937.382 518.026, 936.295 518.221, 932.500 520.840 L 928.500 523.601 924 520.847 C 919.793 518.272, 918.381 518.025, 902.289 517.046 C 881.731 515.797, 849.376 515.774, 846.315 517.007 M 192.686 524.090 C 186.574 525.765, 183.128 531.827, 185.023 537.570 C 188.858 549.189, 206.013 546.514, 205.996 534.300 C 205.993 532.025, 202.792 525, 201.758 525 C 201.609 525, 200.140 524.622, 198.493 524.160 C 196.847 523.698, 194.234 523.667, 192.686 524.090 M 192 525.709 C 184.502 528.466, 184.422 539.861, 191.879 542.950 C 195.138 544.300, 198.475 543.660, 201.365 541.132 C 208.950 534.495, 201.495 522.218, 192 525.709 M 902.496 528.007 C 901.802 529.129, 902.810 529.564, 908.138 530.446 C 915.731 531.703, 921.995 538.543, 921.998 545.581 C 921.999 547.275, 920.877 550.875, 919.504 553.581 C 914.547 563.351, 916.448 566, 928.416 566 C 935.162 566, 936.996 565.662, 938.345 564.171 C 940.592 561.689, 940.434 559.789, 937.500 554 C 931.464 542.089, 936.512 532.125, 949.483 530.347 C 955.764 529.486, 955.656 527, 949.338 527 C 943.112 527, 936.836 530.717, 933.527 536.364 C 930.543 541.455, 930.059 550.671, 932.525 555.402 C 934.428 559.050, 933.600 561.811, 930.360 562.625 C 927.366 563.376, 923 561.608, 923 559.644 C 923 558.874, 923.675 556.629, 924.500 554.654 C 926.250 550.467, 926.454 543.333, 924.939 539.315 C 923.499 535.497, 918.204 530.063, 914.282 528.381 C 910.534 526.773, 903.398 526.546, 902.496 528.007 M 900.775 537.518 C 895.127 540.667, 894.268 547.422, 898.923 552.077 C 903.705 556.859, 910.475 555.850, 913.553 549.897 C 917.634 542.005, 908.537 533.191, 900.775 537.518 M 946.775 537.518 C 941.127 540.667, 940.268 547.422, 944.923 552.077 C 949.705 556.859, 956.475 555.850, 959.553 549.897 C 963.634 542.005, 954.537 533.191, 946.775 537.518 M 221 539.365 C 221 543.132, 217.402 546.706, 211.317 548.982 C 208.217 550.143, 204.404 552, 202.844 553.111 C 199.520 555.478, 194.577 563.455, 195.287 565.305 C 195.607 566.139, 199.920 567.032, 207.639 567.863 C 214.163 568.565, 220.512 569.382, 221.750 569.678 C 225.657 570.614, 224.401 567.019, 219.003 561.816 C 215.541 558.479, 214.543 557.001, 215.753 557.004 C 219.821 557.012, 229 565.356, 229 569.044 C 229 570.075, 229.279 570.121, 230.163 569.237 C 230.803 568.597, 231.536 564.449, 231.793 560.020 C 232.329 550.761, 230.666 544.995, 226.027 540.029 C 222.627 536.389, 221 536.174, 221 539.365 M 901.792 541.250 C 898.791 543.609, 898.663 546.754, 901.455 549.545 C 904.246 552.337, 907.391 552.209, 909.750 549.208 C 913.800 544.056, 906.944 537.200, 901.792 541.250 M 947.792 541.250 C 946.918 541.938, 945.904 543.505, 945.539 544.733 C 944.601 547.891, 949.127 552.402, 952.267 551.440 C 955.779 550.363, 957 548.969, 957 546.033 C 957 541.165, 951.521 538.319, 947.792 541.250 M 170 554 L 170 567 174.500 567 L 179 567 179 555.200 C 179 542.156, 178.536 541, 173.300 541 L 170 541 170 554 M 913 572 C 910.509 574.491, 910.446 577.189, 912.829 579.345 C 914.347 580.719, 917.032 581, 928.629 581 C 943.710 581, 945 580.595, 945 575.857 C 945 570.977, 942.126 570, 927.777 570 C 916.333 570, 914.791 570.209, 913 572 M 1123 585.500 L 1123 594 1114.500 594 L 1106 594 1106 602.500 L 1106 611 1097.500 611 L 1089 611 1089 625 L 1089 639 1097.500 639 L 1106 639 1106 647.500 L 1106 656 1114.500 656 L 1123 656 1123 664.500 L 1123 673 1137 673 L 1151 673 1151 664.500 L 1151 656 1159.500 656 L 1168 656 1168 647.500 L 1168 639 1177 639 L 1186 639 1186 625 L 1186 611 1177 611 L 1168 611 1168 602.500 L 1168 594 1159.500 594 L 1151 594 1151 585.500 L 1151 577 1137 577 L 1123 577 1123 585.500 M 556 589 L 556 596 549.500 596 L 543 596 543 602.500 L 543 609 536 609 L 529 609 529 619.500 L 529 630 536 630 L 543 630 543 637 L 543 644 549.500 644 L 556 644 556 650.500 L 556 657 567 657 L 578 657 578 650.500 L 578 644 584.500 644 L 591 644 591 637 L 591 630 598 630 L 605 630 605 619.500 L 605 609 598 609 L 591 609 591 602.500 L 591 596 584.500 596 L 578 596 578 589 L 578 582 567 582 L 556 582 556 589 M 1128 603.081 C 1118.490 607.386, 1113.674 614.720, 1113.607 625 C 1113.559 632.433, 1115.710 637.473, 1121.162 642.699 C 1132.503 653.570, 1152.008 649.945, 1158.912 635.682 C 1161.369 630.607, 1161.736 620.692, 1159.652 615.718 C 1154.596 603.653, 1139.792 597.743, 1128 603.081 M 141 625 L 141 647 158 647 C 180.640 647, 179 648.793, 179 624.035 C 179 606.309, 178.874 605.003, 177.066 604.035 C 175.949 603.438, 167.917 603, 158.066 603 L 141 603 141 625 M 70 625 L 70 646 83 646 L 96 646 96 625 L 96 604 83 604 L 70 604 70 625 M 560.450 605.407 C 550.347 609.807, 548.321 623.072, 556.536 631.035 C 559.912 634.307, 560.495 634.500, 567 634.500 C 573.491 634.500, 574.093 634.302, 577.426 631.072 C 581.741 626.889, 583.393 622.283, 582.491 616.945 C 580.808 606.985, 569.916 601.284, 560.450 605.407 M 1132 610.068 C 1119.059 615.487, 1118.214 633.053, 1130.606 639.052 C 1148.091 647.516, 1161.735 623.405, 1146 611.848 C 1142.946 609.605, 1135.397 608.645, 1132 610.068 M 97 668.500 L 97 690 83.500 690 L 70 690 70 710 C 70 728.667, 70.133 730.133, 72 732 C 73.953 733.953, 75.333 734, 131.290 734 C 194.227 734, 194.658 733.965, 206.093 727.870 C 220.526 720.177, 231.921 702.736, 231.979 688.250 L 232 683 180 683 L 128 683 128 665 L 128 647 112.500 647 L 97 647 97 668.500 M 348.050 677.781 C 342.289 680.958, 338.808 690.833, 340.420 699.424 L 341.091 703 348.045 703 L 355 703 355 718.500 L 355 734 367.961 734 L 380.923 734 381.879 730.250 C 382.405 728.188, 383.132 725.043, 383.495 723.262 C 384.489 718.374, 387.813 716.369, 396.216 715.589 C 407.068 714.581, 410 713.917, 410 712.468 C 410 711.748, 408.639 710.860, 406.976 710.495 C 400.592 709.093, 395 702.091, 395 695.499 C 395 692.289, 394.593 691.725, 391.250 690.300 C 389.014 689.347, 383.382 688.509, 377.301 688.222 C 367.159 687.745, 367.099 687.727, 366.503 685.012 C 364.919 677.799, 355.038 673.928, 348.050 677.781 M 785.062 677.827 C 779.918 680.586, 778 685.043, 778 694.234 L 778 702 785 702 L 792 702 792 718 L 792 734 804.961 734 L 817.923 734 818.879 730.250 C 819.405 728.188, 820.132 725.043, 820.495 723.262 C 821.413 718.748, 824.930 716.349, 831.736 715.595 C 845.189 714.104, 847 713.755, 846.996 712.656 C 846.994 712.020, 844.649 710.375, 841.783 709 C 835.433 705.953, 833.103 702.901, 832.191 696.436 C 831.505 691.575, 831.419 691.475, 826.497 689.839 C 823.749 688.926, 817.630 687.871, 812.901 687.495 L 804.302 686.812 802.572 682.891 C 799.658 676.287, 792.041 674.084, 785.062 677.827 M 761 684.500 L 761 688.091 767.750 687.796 L 774.500 687.500 774.500 684.500 L 774.500 681.500 767.750 681.204 L 761 680.909 761 684.500 M 324 685 L 324 688 330.500 688 L 337 688 337 685 L 337 682 330.500 682 L 324 682 324 685 M 404.500 683.861 C 399.892 686.707, 397.880 689.476, 397.305 693.760 C 396.285 701.368, 402.050 708, 409.685 708 C 418.246 708, 423 703.246, 423 694.685 C 423 689.451, 420.289 685.436, 415.364 683.379 C 410.921 681.522, 408.081 681.648, 404.500 683.861 M 841.062 683.827 C 837.393 685.795, 834 691.051, 834 694.767 C 834 698.845, 836.794 703.904, 840.190 705.974 C 846.433 709.781, 855.339 707.771, 858.647 701.810 C 860.709 698.094, 860.325 690.684, 857.912 687.615 C 853.532 682.047, 847.084 680.598, 841.062 683.827 M 845 686.706 C 841.631 687.938, 839 691.396, 839 694.593 C 839 699.210, 839.852 700.872, 843.072 702.537 C 847.268 704.707, 849.819 704.335, 853.077 701.077 C 857.872 696.282, 856.668 690.013, 850.452 687.415 C 848.589 686.637, 846.937 686.036, 846.782 686.079 C 846.627 686.122, 845.825 686.405, 845 686.706 M 404.174 689.314 C 399.257 694.549, 403.026 704, 410.031 704 C 414.284 704, 419 699.284, 419 695.031 C 419 687.921, 409.078 684.095, 404.174 689.314 M 405.455 690.455 C 400.730 695.179, 403.620 702, 410.345 702 C 414.410 702, 417.006 699.429, 416.985 695.421 C 416.966 691.941, 416.232 690.684, 413.316 689.150 C 410.045 687.428, 408.170 687.739, 405.455 690.455 M 842.455 690.455 C 839.456 693.453, 839.351 695.905, 842.073 699.365 C 846.227 704.646, 854 701.913, 854 695.171 C 854 688.617, 847.108 685.801, 842.455 690.455 M 324 708 L 324 727 330.500 727 L 337 727 337 708 L 337 689 330.500 689 L 324 689 324 708 M 761 708.046 L 761 727.091 767.750 726.796 L 774.500 726.500 774.772 707.750 L 775.044 689 768.022 689 L 761 689 761 708.046 M 370.314 694.950 C 366.325 697.382, 365 699.817, 365 704.712 C 365 709.204, 366.972 712.417, 371.011 714.506 C 374.676 716.401, 377.336 716.395, 381.033 714.483 C 389.035 710.345, 388.682 697.854, 380.466 694.421 C 375.953 692.536, 374.117 692.631, 370.314 694.950 M 807.314 694.950 C 803.362 697.360, 802 699.815, 802 704.530 C 802 715.350, 816.510 719.771, 822.074 710.647 C 825.795 704.544, 824.046 697.626, 817.989 694.494 C 814.114 692.491, 811.139 692.618, 807.314 694.950 M 808.775 696.559 C 800.462 701.070, 803.528 713, 813 713 C 822.605 713, 825.549 700.921, 817.020 696.510 C 813.444 694.661, 812.259 694.668, 808.775 696.559 M 369.455 698.455 C 364.977 702.932, 366.557 710.081, 372.580 712.598 C 381.644 716.385, 388.974 704.974, 381.975 697.975 C 379.052 695.052, 372.610 695.299, 369.455 698.455 M 341 719.500 L 341 734 346.500 734 L 352 734 352 719.500 L 352 705 346.500 705 L 341 705 341 719.500 M 778 719.500 L 778 734 783.500 734 L 789 734 789 719.500 L 789 705 783.500 705 L 778 705 778 719.500 M 396 717.017 C 388.680 718.021, 387.371 718.659, 386.144 721.822 C 385.024 724.706, 383.015 732.024, 383.006 733.250 C 383.003 733.663, 387.670 734, 393.378 734 L 403.757 734 404.800 729.890 L 405.843 725.780 398.422 726.475 C 393.916 726.897, 391 726.798, 391 726.221 C 391 725.265, 397.881 724, 403.081 724 C 406.147 724, 406.740 723.395, 408.009 718.967 C 408.847 716.048, 408.801 716.002, 405.180 716.131 C 403.156 716.203, 399.025 716.602, 396 717.017 M 834 716.680 C 824.099 717.698, 823.483 718.368, 820.581 731.250 L 819.962 734 830.373 734 C 840.536 734, 840.798 733.943, 841.387 731.593 C 841.720 730.269, 842.294 728.397, 842.665 727.432 C 843.283 725.821, 842.711 725.731, 835.669 726.326 C 831.451 726.683, 828 726.589, 828 726.118 C 828 725.189, 833.692 724.038, 838.500 723.996 C 842.523 723.960, 843.865 722.959, 844.948 719.180 L 845.860 716 841.680 716.160 C 839.381 716.248, 835.925 716.482, 834 716.680 M 324 731 L 324 734 330.500 734 L 337 734 337 731 L 337 728 330.500 728 L 324 728 324 731 M 761 731 L 761 734 768 734 L 775 734 775 731 L 775 728 768 728 L 761 728 761 731" stroke="none" fill="#2dbdef" fill-rule="evenodd"/><path d="M 70 464 L 70 474 129 474 L 188 474 188 464 L 188 454 129 454 L 70 454 70 464 M 1033.250 458.830 C 1043.563 461.356, 1052 463.678, 1052 463.990 C 1052 464.301, 1043.450 466.532, 1033 468.948 C 1022.550 471.363, 1014 473.488, 1014 473.670 C 1014 473.851, 1066.875 474, 1131.500 474 L 1249 474 1249 464 L 1249 454 1131.750 454.118 L 1014.500 454.236 1033.250 458.830" stroke="none" fill="#118b37" fill-rule="evenodd"/><path d="M 582.797 83.734 C 547.371 119.214, 540.722 126.328, 538.620 131 C 535.106 138.809, 534.502 144.507, 536.403 151.926 C 540.362 167.381, 553.725 177.018, 569.447 175.756 C 579.587 174.942, 583.463 172.187, 605.261 150.301 L 625.021 130.461 624.761 86.214 L 624.500 41.967 582.797 83.734 M 257.269 352.750 C 256.846 354.262, 256.526 358.694, 256.558 362.598 C 256.663 375.373, 264.481 386.417, 276.640 390.967 C 281.988 392.967, 283.901 393, 395.923 393 C 527.078 393, 516.283 393.781, 526.579 383.544 C 530.862 379.285, 533.151 376.045, 534.329 372.572 C 536.174 367.130, 536.542 356.556, 535.025 352.565 L 534.050 350 396.044 350 L 258.038 350 257.269 352.750 M 622.010 368.534 C 642.630 389.203, 646.529 391.871, 657.384 392.743 C 661.934 393.108, 665.468 392.737, 669.639 391.455 C 675.138 389.766, 676.735 388.431, 695.500 369.841 L 715.500 350.028 659.510 350.014 L 603.520 350 622.010 368.534 M 783.991 355.545 C 781.198 368.995, 788.397 383.610, 800.818 389.710 L 806.500 392.500 923.500 392.500 L 1040.500 392.500 1045.423 390.077 C 1051.415 387.128, 1057.162 381.546, 1060.131 375.791 C 1062.692 370.828, 1063.863 357.245, 1062.117 352.750 L 1061.050 350 923.096 350 L 785.142 350 783.991 355.545" stroke="none" fill="#e51b21" fill-rule="evenodd"/><path d="M 778 464 L 778 474 836.500 474 L 895 474 895 464 L 895 454 836.500 454 L 778 454 778 464 M 70 668 L 70 690 83.500 690 L 97 690 97 668 L 97 646 83.500 646 L 70 646 70 668 M 610.750 765.166 C 604.127 768.254, 604 768.386, 604 772.170 L 604 776.027 607.750 774.432 C 609.813 773.556, 613.188 772.151, 615.250 771.310 C 618.679 769.914, 619 769.450, 619 765.891 C 619 763.751, 618.663 762.004, 618.250 762.009 C 617.837 762.014, 614.462 763.435, 610.750 765.166 M 126.479 779.394 C 120.444 781.285, 117.209 783.789, 114.209 788.892 C 111.907 792.807, 111.500 794.640, 111.500 801.078 C 111.500 807.759, 111.857 809.233, 114.509 813.524 C 118.669 820.252, 125.070 823.517, 133.979 823.454 C 142.071 823.397, 147.783 820.663, 152.013 814.823 C 154.582 811.276, 155 809.812, 155 804.350 L 155 798 143.500 798 L 132 798 132 802 L 132 806 138.500 806 C 146.036 806, 146.841 807.273, 141.923 811.411 C 135.820 816.546, 125.418 813.827, 122.987 806.461 C 119.236 795.094, 128.187 785.127, 138.338 789.368 C 140.352 790.209, 142 791.371, 142 791.949 C 142 792.567, 144.472 793, 148 793 C 154.470 793, 154.861 792.565, 152.501 788.002 C 148.387 780.046, 136.718 776.185, 126.479 779.394 M 174.707 779.472 C 168.567 781.824, 165.336 784.684, 162.586 790.203 C 157.109 801.194, 160.531 814.342, 170.466 820.485 C 174.708 823.107, 176.265 823.496, 182.422 823.470 C 190.060 823.438, 195.485 821.355, 199.702 816.834 C 207.080 808.924, 207.080 793.076, 199.702 785.166 C 194.193 779.260, 182.322 776.555, 174.707 779.472 M 410.759 779.423 C 402.544 782.355, 397.744 787.626, 395.861 795.782 C 392.522 810.248, 403.403 824, 418.188 824 C 430.591 824, 440.989 813.512, 440.989 801 C 440.989 785.272, 425.449 774.180, 410.759 779.423 M 603.519 779.537 C 594.858 782.840, 589.044 791.460, 589.044 801 C 589.044 816.772, 603.727 827.458, 619.078 822.859 C 634.494 818.240, 639.772 797.411, 628.633 785.153 C 623.241 779.219, 611.336 776.557, 603.519 779.537 M 702.558 779.248 C 694.483 781.381, 687 791.844, 687 801 C 687 813.319, 697.768 824, 710.188 824 C 729.882 824, 740.266 800.008, 726.865 785.469 C 720.718 778.800, 712.355 776.660, 702.558 779.248 M 811.032 779.309 C 806.029 780.903, 798.434 788.642, 797.105 793.500 C 794.652 802.468, 796.353 810.258, 802.135 816.531 C 811.178 826.341, 825.519 826.515, 835.144 816.931 C 838.880 813.212, 840.035 811.202, 841.053 806.654 C 845.142 788.384, 828.921 773.609, 811.032 779.309 M 1045.127 779.439 C 1034.480 782.903, 1028.500 794.456, 1031.034 806.663 C 1031.956 811.104, 1033.102 813.142, 1036.841 816.990 C 1040.698 820.959, 1042.494 822.003, 1047.278 823.058 C 1058.965 825.633, 1070.398 820.035, 1073.436 810.250 C 1074.108 808.086, 1073.901 808, 1068.036 808 C 1063.472 808, 1061.789 808.387, 1061.347 809.537 C 1060.532 811.662, 1055.701 814, 1052.126 814 C 1045.201 814, 1039.834 805.045, 1041.980 797.073 C 1043.279 792.252, 1048.033 788, 1052.126 788 C 1055.701 788, 1060.532 790.338, 1061.347 792.463 C 1061.788 793.611, 1063.465 794, 1067.969 794 C 1071.286 794, 1074 793.753, 1074 793.450 C 1074 792.377, 1070.734 786.472, 1069.129 784.644 C 1064.470 779.335, 1053.055 776.860, 1045.127 779.439 M 212 801.424 L 212 824 221.951 824 C 240.758 824, 247 820.841, 247 811.323 C 247 807.551, 246.459 806.259, 243.742 803.542 L 240.484 800.284 243.242 797.757 C 247.238 794.096, 247.167 787.338, 243.085 782.766 L 240.169 779.500 226.085 779.174 L 212 778.849 212 801.424 M 254 801.552 L 254 824.105 259.250 823.802 L 264.500 823.500 264.769 801.250 L 265.038 779 259.519 779 L 254 779 254 801.552 M 273 801.500 L 273 824 286.500 824 L 300 824 300 819.500 L 300 815 292 815 L 284 815 284 810 L 284 805 291 805 L 298 805 298 801 L 298 797 291 797 L 284 797 284 792 L 284 787 292 787 L 300 787 300 783 L 300 779 286.500 779 L 273 779 273 801.500 M 307 801.500 L 307 824 312.500 824 L 318 824 318 815.500 C 318 808.726, 318.296 807, 319.456 807 C 320.256 807, 323.041 810.825, 325.644 815.500 L 330.377 824 336.189 824 C 339.385 824, 342 823.754, 342 823.453 C 342 823.153, 339.975 819.396, 337.500 815.105 C 335.025 810.814, 333 806.857, 333 806.312 C 333 805.767, 334.126 804.808, 335.502 804.181 C 341.239 801.567, 343.553 793.076, 340.362 786.351 C 337.607 780.546, 333.124 779, 319.040 779 L 307 779 307 801.500 M 349 801.500 L 349 824 354.472 824 L 359.944 824 360.222 810.329 L 360.500 796.658 369.337 810.329 L 378.174 824 383.587 824 L 389 824 389 801.500 L 389 779 383.500 779 L 378 779 378 792.730 L 378 806.461 369.042 792.730 L 360.085 779 354.542 779 L 349 779 349 801.500 M 473.487 780.250 C 473.239 780.938, 469.653 790.848, 465.518 802.272 C 461.383 813.697, 458 823.260, 458 823.522 C 458 823.785, 460.426 824, 463.391 824 C 468.748 824, 468.793 823.974, 470.383 820 L 471.984 816 480.340 816 L 488.697 816 490.268 820 C 491.839 823.999, 491.841 824, 497.402 824 L 502.964 824 499.431 814.250 C 497.488 808.888, 493.829 798.763, 491.300 791.750 L 486.701 779 480.319 779 C 476.121 779, 473.783 779.428, 473.487 780.250 M 508.186 796.250 C 508.484 812.602, 508.625 813.675, 510.901 816.867 C 516.868 825.233, 531.388 826.379, 539.373 819.114 C 544.293 814.638, 545 811.550, 545 794.532 L 545 779 539.500 779 L 534 779 534 794.326 C 534 809.052, 533.910 809.736, 531.686 811.826 C 528.740 814.593, 523.676 814.676, 521 812 C 519.172 810.172, 519 808.667, 519 794.500 L 519 779 513.436 779 L 507.871 779 508.186 796.250 M 550 783 L 550 787 555.977 787 L 561.955 787 562.227 805.250 L 562.500 823.500 567.750 823.802 L 573 824.105 573 805.552 L 573 787 579 787 L 585 787 585 783 L 585 779 567.500 779 L 550 779 550 783 M 641 801.500 L 641 824 646.500 824 L 652 824 652.004 810.250 L 652.008 796.500 661.153 810.250 L 670.298 824 675.649 824 L 681 824 681 801.500 L 681 779 675.500 779 L 670 779 669.983 792.750 L 669.966 806.500 661.008 792.750 L 652.050 779 646.525 779 L 641 779 641 801.500 M 739 801.454 L 739 824 744.471 824 L 749.942 824 750.221 810.750 L 750.500 797.500 755.391 810.750 L 760.282 824 764.551 824 L 768.819 824 773.659 810.761 L 778.500 797.522 778.779 810.761 L 779.058 824 784.529 824 L 790 824 790 801.454 L 790 778.909 783.390 779.204 L 776.780 779.500 771.122 793.685 C 768.010 801.486, 765.191 808.142, 764.857 808.476 C 764.523 808.810, 761.582 802.427, 758.321 794.292 L 752.391 779.500 745.696 779.204 L 739 778.909 739 801.454 M 862 801.500 L 862 824 867 824 L 872 824 872 810.833 C 872 803.592, 872.322 797.989, 872.715 798.382 C 873.109 798.776, 875.484 804.588, 877.994 811.299 L 882.557 823.500 886.935 823.500 L 891.313 823.500 895.906 811.190 L 900.500 798.880 901 811.190 L 901.500 823.500 906.750 823.802 L 912 824.105 912 801.552 L 912 779 905.666 779 L 899.332 779 893.416 793.995 C 890.162 802.243, 887.275 808.991, 887 808.991 C 886.725 808.991, 883.838 802.243, 880.584 793.995 L 874.668 779 868.334 779 L 862 779 862 801.500 M 920.166 795.750 C 920.457 810.360, 920.756 812.924, 922.500 815.819 C 928.210 825.296, 944.804 826.729, 952.638 818.422 C 956.825 813.982, 958 808.184, 958 791.951 L 958 779 952.570 779 L 947.141 779 946.820 794.591 C 946.512 809.583, 946.409 810.255, 944.139 812.091 C 940.851 814.750, 936.433 814.524, 933.455 811.545 C 931.066 809.157, 931 808.686, 931 794.045 L 931 779 925.416 779 L 919.831 779 920.166 795.750 M 965 801.500 L 965 824 970.472 824 L 975.944 824 976.222 810.250 L 976.500 796.500 985.500 810 L 994.500 823.500 999.750 823.802 L 1005 824.105 1005 801.552 L 1005 779 999.529 779 L 994.058 779 993.779 792.027 L 993.500 805.055 985 792.036 L 976.500 779.017 970.750 779.008 L 965 779 965 801.500 M 1013.231 801.250 L 1013.500 823.500 1018.750 823.802 L 1024 824.105 1024 801.552 L 1024 779 1018.481 779 L 1012.962 779 1013.231 801.250 M 1081 801.500 L 1081 824 1086.500 824 L 1092 824 1092 801.500 L 1092 779 1086.500 779 L 1081 779 1081 801.500 M 1100 801.552 L 1100 824.105 1105.250 823.802 L 1110.500 823.500 1110.789 815.357 L 1111.077 807.215 1118.491 806.840 C 1125.046 806.509, 1126.254 806.130, 1128.929 803.568 C 1134.537 798.195, 1135.321 790.220, 1130.806 784.480 C 1127.392 780.140, 1123.277 779, 1111.032 779 L 1100 779 1100 801.552 M 1152.673 779.750 C 1151.982 780.913, 1137 822.573, 1137 823.329 C 1137 823.698, 1139.457 824, 1142.460 824 L 1147.920 824 1149.118 820 L 1150.317 816 1159.118 816 L 1167.920 816 1169.118 820 L 1170.317 824 1175.658 824 C 1178.858 824, 1181 823.561, 1181 822.906 C 1181 822.305, 1177.532 812.180, 1173.293 800.406 L 1165.587 779 1159.352 779 C 1155.924 779, 1152.918 779.337, 1152.673 779.750 M 1187 801.500 L 1187 824 1199.500 824 L 1212 824 1212 819.500 L 1212 815 1205 815 L 1198 815 1198 797 L 1198 779 1192.500 779 L 1187 779 1187 801.500 M 223 792 L 223 797 227.066 797 C 232.742 797, 235 795.560, 235 791.940 C 235 788.546, 232.319 787, 226.435 787 L 223 787 223 792 M 177.256 789.029 C 171.824 791.213, 169.219 801.656, 172.517 808.033 C 175.757 814.298, 184.786 815.956, 190.037 811.250 C 198.409 803.748, 193.755 787.885, 183.234 788.063 C 181.180 788.098, 178.490 788.533, 177.256 789.029 M 318 793.500 L 318 799 322.845 799 C 328.146 799, 331 796.985, 331 793.243 C 331 789.740, 328.321 788, 322.929 788 L 318 788 318 793.500 M 411.743 789.763 C 408.091 792.027, 405.539 798.728, 406.459 803.636 C 407.471 809.026, 412.745 814, 417.450 814 C 424.925 814, 430 808.743, 430 801 C 430 790.808, 419.992 784.648, 411.743 789.763 M 605.763 789.565 C 597.960 793.799, 598.091 808.410, 605.967 812.483 C 613.012 816.126, 620.813 812.693, 623.140 804.926 C 626.471 793.809, 615.620 784.217, 605.763 789.565 M 703.881 789.503 C 702.441 790.286, 700.529 792.473, 699.631 794.364 C 695.197 803.709, 700.631 814, 710 814 C 719.242 814, 724.596 804.149, 720.579 794.534 C 718.144 788.708, 709.910 786.227, 703.881 789.503 M 812.381 789.910 C 805.050 794.380, 805.493 808.618, 813.085 812.544 C 819.209 815.711, 826.591 813.488, 829.365 807.643 C 835.248 795.246, 823.590 783.074, 812.381 789.910 M 1111 793.500 L 1111 799 1115 799 C 1121.274 799, 1124.541 794.748, 1121.965 789.934 C 1121.155 788.421, 1119.850 788, 1115.965 788 L 1111 788 1111 793.500 M 479.534 793.107 C 478.363 796.290, 475 806.339, 475 806.657 C 475 806.845, 477.448 807, 480.440 807 L 485.881 807 483.445 799.838 C 480.737 791.876, 480.278 791.086, 479.534 793.107 M 1156.197 798.821 C 1154.989 802.572, 1154 805.947, 1154 806.321 C 1154 806.694, 1156.401 807, 1159.336 807 L 1164.672 807 1162.086 799.501 C 1160.664 795.376, 1159.251 792.001, 1158.947 792.001 C 1158.643 792, 1157.405 795.069, 1156.197 798.821 M 223 810 L 223 815 227.566 815 C 233.598 815, 236 813.623, 236 810.165 C 236 806.158, 234.273 805, 228.300 805 L 223 805 223 810" stroke="none" fill="#ffffff" fill-rule="evenodd"/><path d="M 660 464 L 660 474 719 474 L 778 474 778 464 L 778 454 719 454 L 660 454 660 464" stroke="none" fill="#fdd617" fill-rule="evenodd"/><path d="M 542 464 L 542 474 601 474 L 660 474 660 464 L 660 454 601 454 L 542 454 542 464 M 895.370 464 C 895.370 469.775, 895.535 472.137, 895.737 469.250 C 895.939 466.363, 895.939 461.637, 895.737 458.750 C 895.535 455.863, 895.370 458.225, 895.370 464 M 96.469 625.249 L 96.500 646.500 111.751 646.540 L 127.002 646.581 112.021 646.264 L 97.040 645.948 96.739 624.973 L 96.439 603.999 96.469 625.249 M 211.230 801.250 L 211.461 824.500 211.749 801.781 L 212.037 779.061 224.269 778.747 L 236.500 778.432 223.750 778.216 L 211 778 211.230 801.250 M 253.448 779.274 C 253.180 779.974, 253.091 790.437, 253.250 802.524 L 253.541 824.500 253.771 801.800 L 254 779.100 259.750 778.739 L 265.500 778.378 259.719 778.189 C 255.812 778.061, 253.779 778.413, 253.448 779.274 M 272.230 801.223 L 272.461 824.500 272.749 801.750 L 273.038 779 286.519 779 L 300 779 300 782.960 L 300 786.919 291.750 787.278 L 283.500 787.637 292 787.569 L 300.500 787.500 300.500 783 L 300.500 778.500 286.250 778.223 L 272 777.945 272.230 801.223 M 312.789 778.741 C 316.248 778.937, 321.648 778.936, 324.789 778.738 C 327.930 778.540, 325.100 778.380, 318.500 778.382 C 311.900 778.384, 309.330 778.546, 312.789 778.741 M 348.448 779.274 C 348.180 779.974, 348.091 790.437, 348.250 802.524 L 348.541 824.500 348.771 801.800 L 349 779.100 354.750 778.739 L 360.500 778.378 354.719 778.189 C 350.812 778.061, 348.779 778.413, 348.448 779.274 M 383.476 778.717 L 388.963 779.099 389.260 801.550 L 389.558 824.001 389.529 801.251 L 389.500 778.500 383.745 778.418 L 377.990 778.336 383.476 778.717 M 473.653 778.750 C 473.397 779.163, 475.508 779.370, 478.344 779.211 C 486.868 778.734, 487.907 778.281, 480.809 778.136 C 477.129 778.061, 473.909 778.337, 473.653 778.750 M 507.223 794.250 L 507.445 810.500 507.748 794.799 L 508.050 779.098 513.775 778.738 L 519.500 778.378 513.250 778.189 L 507 778 507.223 794.250 M 539.469 778.717 L 544.948 779.098 545.265 794.050 L 545.581 809.002 545.540 793.751 L 545.500 778.500 539.745 778.418 L 533.990 778.336 539.469 778.717 M 567.499 778.737 L 585 779.046 585 782.973 L 585 786.900 579.250 787.200 L 573.500 787.500 573.466 805.500 L 573.432 823.500 573.739 805.799 L 574.045 788.098 579.772 787.799 L 585.500 787.500 585.500 783 L 585.500 778.500 567.749 778.464 L 549.998 778.429 567.499 778.737 M 640.448 779.274 C 640.180 779.974, 640.091 790.437, 640.250 802.524 L 640.541 824.500 640.771 801.750 L 641 779 646.300 779 C 649.215 779, 652.231 779.563, 653.002 780.250 C 654.194 781.313, 654.206 781.239, 653.079 779.750 C 651.452 777.599, 641.239 777.214, 640.448 779.274 M 740.500 778.597 C 745.103 779.346, 752.777 779.444, 752.347 778.750 C 752.091 778.337, 748.871 778.061, 745.191 778.136 C 741.511 778.211, 739.400 778.419, 740.500 778.597 M 776.653 778.750 C 776.397 779.163, 778.508 779.370, 781.344 779.211 C 789.868 778.734, 790.907 778.281, 783.809 778.136 C 780.129 778.061, 776.909 778.337, 776.653 778.750 M 861.230 801.250 L 861.461 824.500 861.749 801.795 L 862.037 779.091 868.769 778.741 L 875.500 778.392 868.250 778.196 L 861 778 861.230 801.250 M 905.231 778.741 L 911.963 779.091 912.251 801.795 L 912.539 824.500 912.770 801.250 L 913 778 905.750 778.196 L 898.500 778.392 905.231 778.741 M 946.220 792.750 L 946.441 807.500 946.747 793.299 L 947.054 779.098 952.777 778.738 L 958.500 778.378 952.250 778.189 L 946 778 946.220 792.750 M 999.231 778.738 L 1004.963 779.099 1005.251 801.799 L 1005.539 824.500 1005.770 801.250 L 1006 778 999.750 778.189 L 993.500 778.378 999.231 778.738 M 1018.476 778.717 L 1023.963 779.099 1024.260 801.550 L 1024.558 824.001 1024.529 801.251 L 1024.500 778.500 1018.745 778.418 L 1012.990 778.336 1018.476 778.717 M 1080.448 779.274 C 1080.180 779.974, 1080.091 790.437, 1080.250 802.524 L 1080.541 824.500 1080.771 801.800 L 1081 779.100 1086.750 778.739 L 1092.500 778.378 1086.719 778.189 C 1082.812 778.061, 1080.779 778.413, 1080.448 779.274 M 1099.230 801.250 L 1099.461 824.500 1099.749 801.784 L 1100.037 779.067 1110.769 778.746 L 1121.500 778.425 1110.250 778.212 L 1099 778 1099.230 801.250 M 1155.250 778.728 C 1157.313 778.944, 1160.688 778.944, 1162.750 778.728 C 1164.813 778.513, 1163.125 778.336, 1159 778.336 C 1154.875 778.336, 1153.188 778.513, 1155.250 778.728 M 1186.230 801.250 L 1186.461 824.500 1186.749 801.799 L 1187.037 779.099 1192.769 778.738 L 1198.500 778.378 1192.250 778.189 L 1186 778 1186.230 801.250 M 318.185 793.250 L 318 799 322.750 798.825 L 327.500 798.651 323.300 798.270 L 319.101 797.890 318.735 792.695 L 318.370 787.500 318.185 793.250 M 290.695 796.717 L 297.889 797.085 298.293 801.050 L 298.696 805.015 298.598 800.757 L 298.500 796.500 291 796.424 L 283.500 796.349 290.695 796.717 M 976 810.500 C 976 818.108, 976.201 824.132, 976.447 823.887 C 977.143 823.190, 977.299 797.966, 976.611 797.278 C 976.275 796.942, 976 802.892, 976 810.500 M 131.175 802.250 L 131 807 138.250 806.804 L 145.500 806.608 138.805 806.260 L 132.111 805.911 131.730 801.706 L 131.349 797.500 131.175 802.250 M 750 811.500 C 750 818.558, 750.203 824.131, 750.451 823.883 C 751.151 823.183, 751.304 799.971, 750.613 799.280 C 750.276 798.943, 750 804.442, 750 811.500 M 777.857 800.250 C 777.661 800.938, 777.748 806.675, 778.051 813 L 778.601 824.500 778.801 811.750 C 778.986 799.920, 778.755 797.107, 777.857 800.250 M 872 811.500 C 872 818.558, 872.200 824.134, 872.444 823.890 C 873.143 823.190, 873.307 799.974, 872.618 799.285 C 872.278 798.945, 872 804.442, 872 811.500 M 318.355 815.500 C 318.352 820.450, 318.521 822.601, 318.731 820.280 C 318.940 817.959, 318.943 813.909, 318.736 811.280 C 318.530 808.651, 318.358 810.550, 318.355 815.500 M 292.197 814.729 L 299.894 815.079 300.289 819.546 L 300.684 824.013 300.592 819.256 L 300.500 814.500 292.500 814.439 L 284.500 814.379 292.197 814.729" stroke="none" fill="#ec671b" fill-rule="evenodd"/><path d="M 424 464 L 424 474 483 474 L 542 474 542 464 L 542 454 483 454 L 424 454 424 464 M 896 464.016 L 896 474.031 954.750 473.766 L 1013.500 473.500 1031.744 469 C 1041.778 466.525, 1049.991 464.261, 1049.994 463.968 C 1049.997 463.675, 1041.112 461.311, 1030.250 458.713 L 1010.500 453.991 953.250 453.995 L 896 454 896 464.016" stroke="none" fill="#e51c21" fill-rule="evenodd"/><path d="M 306 464 L 306 474 365 474 L 424 474 424 464 L 424 454 365 454 L 306 454 306 464" stroke="none" fill="#881d6b" fill-rule="evenodd"/><path d="M 188 464 L 188 474 247 474 L 306 474 306 464 L 306 454 247 454 L 188 454 188 464" stroke="none" fill="#194d9d" fill-rule="evenodd"/><path d="M 70 464 L 70 474 129 474 L 188 474 188 464 L 188 454 129 454 L 70 454 70 464 M 1033.250 458.830 C 1043.563 461.356, 1052 463.678, 1052 463.990 C 1052 464.301, 1043.450 466.532, 1033 468.948 C 1022.550 471.363, 1014 473.488, 1014 473.670 C 1014 473.851, 1066.875 474, 1131.500 474 L 1249 474 1249 464 L 1249 454 1131.750 454.118 L 1014.500 454.236 1033.250 458.830" stroke="none" fill="#118b37" fill-rule="evenodd"/><path d="M 697 89.062 L 697 133.614 715.847 152.295 C 737.996 174.251, 739.971 175.483, 753 175.476 C 760.278 175.473, 762.235 175.086, 766.608 172.791 C 773.306 169.276, 780.410 161.294, 782.535 154.895 C 784.812 148.040, 784.221 137.058, 781.250 131 C 779.694 127.828, 766.937 114.402, 738.021 85.505 L 697 44.509 697 89.062 M 463.404 145.766 C 460.601 146.768, 456.551 149.002, 454.404 150.730 C 452.257 152.458, 414.276 190.126, 370.002 234.436 L 289.505 315 333.998 315 L 378.492 315 426 267.500 L 473.508 220 521 267.500 L 568.492 315 612.994 315 L 657.495 315 574.529 232.029 C 483.573 141.068, 488.155 145.106, 475 144.327 C 470.424 144.057, 466.991 144.483, 463.404 145.766 M 836.396 145.358 C 834.139 146.098, 830.314 148.087, 827.896 149.779 C 825.478 151.471, 787.051 189.338, 742.502 233.928 L 661.505 315 705.998 315 L 750.492 315 798 267.500 L 845.508 220 893 267.500 L 940.492 315 984.994 315 L 1029.495 315 946.998 232.432 C 884.633 170.014, 863.280 149.232, 859.500 147.276 C 853.484 144.162, 842.764 143.272, 836.396 145.358 M 637.819 165.707 C 618.686 184.733, 617.297 186.874, 620.343 192.629 C 622.118 195.981, 652.464 226.260, 655.684 227.893 C 661.245 230.712, 662.459 229.913, 681.689 210.785 C 706.241 186.363, 706.202 189.818, 682.192 165.808 C 658.313 141.930, 661.723 141.937, 637.819 165.707 M 452.952 278.575 C 435.369 296.060, 435 296.514, 435 300.625 C 435 304.084, 435.541 305.277, 438.077 307.411 L 441.153 310 473.012 310 C 490.877 310, 505.975 309.580, 507.387 309.043 C 508.771 308.517, 510.601 306.739, 511.452 305.093 C 514.761 298.693, 514.276 297.896, 495.749 279.285 C 480.877 264.344, 477.975 261.870, 474.702 261.339 L 470.905 260.723 452.952 278.575 M 838.222 262.411 C 832.301 264.341, 827.543 268.221, 824.272 273.784 C 821.908 277.806, 821.500 279.604, 821.500 286 C 821.500 292.424, 821.904 294.187, 824.317 298.292 C 835.753 317.747, 864.807 313.646, 870.039 291.839 C 874.464 273.390, 856.242 256.536, 838.222 262.411" stroke="none" fill="#e30613" fill-rule="evenodd"/><path d="M 76.206 559.741 C 79.895 559.932, 86.195 559.934, 90.206 559.743 C 94.218 559.553, 91.200 559.396, 83.500 559.395 C 75.800 559.393, 72.518 559.549, 76.206 559.741 M 76.250 603.742 C 79.963 603.934, 86.037 603.934, 89.750 603.742 C 93.463 603.549, 90.425 603.392, 83 603.392 C 75.575 603.392, 72.537 603.549, 76.250 603.742 M 140.428 625 C 140.428 637.375, 140.571 642.438, 140.747 636.250 C 140.922 630.063, 140.922 619.938, 140.747 613.750 C 140.571 607.563, 140.428 612.625, 140.428 625" stroke="none" fill="#58c7e9" fill-rule="evenodd"/></svg>