<svg xmlns="http://www.w3.org/2000/svg" width="4158" height="3200" viewBox="0 0 4158 3200" version="1.1"><path d="M 31 2516.500 L 31 2597 75.500 2597 L 120 2597 120 2516.500 L 120 2436 75.500 2436 L 31 2436 31 2516.500" stroke="none" fill="#00c5f3" fill-rule="evenodd"/><path d="M 31 2195.500 L 31 2276 75.500 2276 L 120 2276 120 2195.500 L 120 2115 75.500 2115 L 31 2115 31 2195.500" stroke="none" fill="#a9db00" fill-rule="evenodd"/><path d="M 174.750 2275.750 L 120 2276.017 120 2356.009 L 120 2436 193.500 2436 L 267 2436 267 2360.140 C 267 2318.416, 267.286 2282.191, 267.636 2279.640 L 268.272 2275 248.886 2275.241 C 238.224 2275.374, 204.863 2275.603, 174.750 2275.750" stroke="none" fill="#ff008e" fill-rule="evenodd"/><path d="M 31 1778 L 31 1837 236 1837 L 441 1837 441 1778 L 441 1719 236 1719 L 31 1719 31 1778 M 3312 1719.870 C 3312.825 1720.315, 3343.291 1733.463, 3379.703 1749.087 C 3416.115 1764.711, 3445.590 1777.805, 3445.203 1778.184 C 3444.816 1778.564, 3414.125 1791.943, 3377 1807.915 L 3309.500 1836.956 3718.750 1836.978 L 4128 1837 4128 1778 L 4128 1719 3719.250 1719.030 C 3494.438 1719.047, 3311.175 1719.425, 3312 1719.870" stroke="none" fill="#008b00" fill-rule="evenodd"/><path d="M 441 1778 L 441 1837 646 1837 L 851 1837 851 1778 L 851 1719 646 1719 L 441 1719 441 1778" stroke="none" fill="#0045b9" fill-rule="evenodd"/><path d="M 851 1778 L 851 1837 1055.500 1837 L 1260 1837 1260 1778 L 1260 1719 1055.500 1719 L 851 1719 851 1778" stroke="none" fill="#8a166a" fill-rule="evenodd"/><path d="M 1260 1778 L 1260 1837 1465.500 1837 L 1671 1837 1671 1778 L 1671 1719 1465.500 1719 L 1260 1719 1260 1778 M 2899 1778 L 2899 1837 3103.572 1837 L 3308.144 1837 3375.822 1807.922 C 3413.045 1791.929, 3443.806 1778.542, 3444.180 1778.172 C 3444.554 1777.803, 3414.230 1764.338, 3376.793 1748.250 L 3308.727 1719 3103.863 1719 L 2899 1719 2899 1778" stroke="none" fill="#ff0000" fill-rule="evenodd"/><path d="M 1671 1778 L 1671 1837 1875 1837 L 2079 1837 2079 1778 L 2079 1719 1875 1719 L 1671 1719 1671 1778 M 2898.469 1778 C 2898.469 1810.725, 2898.595 1824.112, 2898.749 1807.750 C 2898.904 1791.388, 2898.904 1764.612, 2898.749 1748.250 C 2898.595 1731.888, 2898.469 1745.275, 2898.469 1778 M 119.460 2276.250 C 119.198 2276.938, 119.099 2313.275, 119.242 2357 L 119.500 2436.500 193.500 2436.500 L 267.500 2436.500 267.509 2358.750 L 267.519 2281 267.253 2358.500 L 266.988 2436 193.494 2436 L 120 2436 120 2356.009 L 120 2276.017 174.750 2275.750 L 229.500 2275.483 174.719 2275.241 C 131.636 2275.052, 119.835 2275.267, 119.460 2276.250" stroke="none" fill="#ff6400" fill-rule="evenodd"/><path d="M 2079 1778 L 2079 1837 2284 1837 L 2489 1837 2489 1778 L 2489 1719 2284 1719 L 2079 1719 2079 1778" stroke="none" fill="#ffd800" fill-rule="evenodd"/><path d="M 2059.113 76.545 C 2043.458 79.941, 2027.298 87.762, 2014.887 97.948 C 2004.704 106.306, 1676.140 464.212, 1669.282 474.417 C 1600.360 576.977, 1710.906 711.319, 1810.960 646.594 C 1823.580 638.431, 1824.301 637.674, 1953.268 497.220 C 2022.597 421.716, 2079.622 360.066, 2079.990 360.220 C 2080.358 360.374, 2136.606 421.475, 2204.984 496 C 2345.278 648.905, 2339.581 643.141, 2360.210 653.026 C 2461.522 701.570, 2557.373 566.070, 2488.353 471.877 C 2479.705 460.075, 2151.670 103.556, 2143.445 97.020 C 2120.214 78.560, 2086.998 70.495, 2059.113 76.545 M 1417 545.451 C 1398.319 548.521, 1379.666 557.486, 1364.991 570.448 C 1358.395 576.274, 1234.912 710.558, 722.631 1268.996 C 697.631 1296.249, 691.436 1305.533, 684.594 1326.002 C 660.467 1398.181, 704.234 1475.503, 774 1483.951 C 791.194 1486.033, 1553.697 1484.882, 1562 1482.761 C 1677.023 1453.381, 1678.208 1282.793, 1563.609 1251.228 C 1557.982 1249.679, 1537.408 1249.505, 1302.817 1249.023 L 1048.134 1248.500 1239.929 1039.546 C 1345.416 924.621, 1432.141 830.453, 1432.651 830.283 C 1433.162 830.113, 1562.936 970.912, 1721.039 1143.170 C 1931.221 1372.169, 2010.651 1458.073, 2016.500 1462.714 C 2051.814 1490.734, 2100.722 1492.015, 2138.500 1465.909 C 2149.046 1458.622, 2144.020 1464.031, 2444.842 1136.207 C 2599.427 967.746, 2726.082 829.821, 2726.297 829.707 C 2726.512 829.593, 2813.225 923.775, 2918.993 1039 L 3111.298 1248.500 2856.399 1249.009 L 2601.500 1249.517 2592.121 1252.274 C 2483.012 1284.341, 2484.068 1451.568, 2593.571 1481.762 L 2603.500 1484.500 2996 1484.500 L 3388.500 1484.500 3398.119 1481.841 C 3479.789 1459.263, 3509.475 1349.927, 3451.500 1285.236 C 3439.196 1271.507, 2808.461 584.227, 2802.112 577.631 C 2762.031 535.991, 2699.156 533.103, 2657.695 570.996 C 2654.791 573.649, 2523.583 716.181, 2366.120 887.733 L 2079.825 1199.645 2074.070 1193.572 C 2070.905 1190.233, 1942.433 1050.250, 1788.576 882.500 C 1634.720 714.750, 1506.736 575.538, 1504.168 573.139 C 1480.314 550.857, 1447.511 540.437, 1417 545.451 M 2072.613 559.059 C 2064.009 561.199, 2061.071 564.078, 2003.293 627 C 1918.902 718.906, 1918.882 702.809, 2003.500 795.006 C 2068.905 866.270, 2065.800 863.541, 2080.719 862.859 C 2094.582 862.224, 2091.638 864.886, 2156.127 794.677 C 2240.705 702.598, 2240.603 718.935, 2157.168 628.088 C 2127.286 595.551, 2101.636 567.772, 2100.168 566.358 C 2093.907 560.325, 2081.132 556.941, 2072.613 559.059 M 2713.831 988.955 C 2643.350 1001.884, 2616.484 1095.061, 2667.880 1148.324 C 2717.456 1199.702, 2799.175 1169.465, 2810.644 1095.500 C 2820.074 1034.677, 2769.285 978.782, 2713.831 988.955 M 1425.613 993.055 C 1417.153 995.168, 1413.941 998.310, 1358.718 1058.499 C 1296.170 1126.673, 1298.500 1123.558, 1298.500 1139 C 1298.500 1150.728, 1301.546 1158.431, 1308.908 1165.317 C 1318.314 1174.115, 1308.944 1173.500, 1433.500 1173.500 L 1543.500 1173.500 1549.161 1170.720 C 1566.950 1161.984, 1573.528 1136.815, 1562.462 1119.822 C 1559.885 1115.865, 1460.611 1007.074, 1453.675 1000.607 C 1446.277 993.709, 1435.070 990.692, 1425.613 993.055 M 2489 1778 L 2489 1837 2693.500 1837 L 2898 1837 2898 1778 L 2898 1719 2693.500 1719 L 2489 1719 2489 1778 M 3719 1942.592 C 3651.885 1948.414, 3598.743 1965.341, 3547.500 1997.220 C 3312.553 2143.385, 3283.062 2503.955, 3490.807 2690.389 C 3745.417 2918.882, 4127.748 2723.479, 4127.473 2365 C 4127.286 2122.726, 3934.977 1923.856, 3719 1942.592 M 495.500 1950.674 C 488.903 1951.497, 477.354 1954.335, 469.441 1957.077 C 452.866 1962.820, 431.172 1963.074, 398.500 1957.909 C 391.350 1956.779, 383.813 1955.603, 381.750 1955.295 L 378 1954.737 378 1994.368 L 378 2034 390.032 2034 C 416.370 2034, 417 2035.498, 417 2098.159 L 417 2143 436.356 2143 L 455.713 2143 456.341 2136.250 C 459.342 2103.992, 472.872 2083.692, 500.352 2070.218 C 537.400 2052.053, 549.738 2035.421, 547.691 2006.405 C 545 1968.277, 525.060 1946.985, 495.500 1950.674 M 1680.007 1956.063 C 1673.835 1959.465, 1669.740 1963.069, 1667.014 1967.500 C 1665.471 1970.008, 1615.068 2111.777, 1401.975 2712.985 C 1389.936 2746.950, 1385.479 2760.691, 1386.322 2761.243 C 1456.086 2806.979, 1581.961 2747.917, 1618.081 2652.500 L 1621.867 2642.500 1756.998 2642.500 L 1892.128 2642.500 1896.467 2653.582 C 1926.234 2729.612, 1993.345 2776.315, 2069 2773.648 C 2096.251 2772.687, 2130.086 2764.146, 2128.419 2758.649 C 2109.136 2695.038, 1846.873 1969.117, 1840.756 1962.424 C 1831.439 1952.229, 1838.296 1952.997, 1756.790 1953.018 L 1685.500 1953.036 1680.007 1956.063 M 45.637 1955.465 C 31.306 1960.574, 31.550 1959.088, 31.212 2043.250 L 30.925 2115 75.462 2115 L 120 2115 120 2195 L 120 2275 174.500 2275 L 229 2275 229 2210 L 229 2145 297 2145 L 365 2145 365 2049.500 L 365 1954 207.250 1954.044 C 75.909 1954.080, 48.853 1954.318, 45.637 1955.465 M 700.312 1955.945 C 695.644 1958.064, 690.564 1964.309, 688.949 1969.911 C 688.242 1972.364, 688.008 2098.409, 688.207 2368 L 688.500 2762.500 691 2766.946 C 692.799 2770.146, 694.894 2772.108, 698.473 2773.946 L 703.445 2776.500 803.223 2776.773 L 903 2777.047 903 2678.523 L 903 2580 894 2580 L 885 2580 884.990 2276.250 L 884.980 1972.500 882.633 1967.459 C 880.123 1962.069, 875.499 1957.535, 870.282 1955.348 C 864.431 1952.896, 705.800 1953.453, 700.312 1955.945 M 2220.384 1955.913 C 2215.933 1957.934, 2211.960 1962.459, 2209.531 1968.272 C 2207.624 1972.835, 2207.160 2755.435, 2209.060 2762.277 C 2213.021 2776.541, 2208.459 2776, 2324.682 2776 L 2423 2776 2423 2677.500 L 2423 2579 2414.006 2579 L 2405.013 2579 2404.756 2275.250 L 2404.500 1971.500 2402.338 1967.500 C 2399.545 1962.334, 2394.473 1957.507, 2389.782 1955.551 C 2383.526 1952.941, 2226.187 1953.278, 2220.384 1955.913 M 2733.500 1954.935 C 2726.616 1956.611, 2721.015 1961.146, 2717.364 1968 C 2715.592 1971.328, 2715.500 1975.289, 2715.500 2048.500 L 2715.500 2125.500 2717.799 2130.488 C 2724.723 2145.509, 2716.930 2144.454, 2823.250 2144.771 L 2914 2145.041 2914 2450.824 L 2914 2756.607 2916.579 2761.782 C 2919.395 2767.434, 2925.078 2772.547, 2930.825 2774.600 C 2935.800 2776.376, 3088.205 2776.618, 3094.078 2774.859 C 3099.421 2773.258, 3104.068 2769.112, 3107.534 2762.856 L 3110.500 2757.500 3110.756 2451.271 L 3111.013 2145.041 3201.756 2144.771 L 3292.500 2144.500 3296.698 2142.256 C 3301.492 2139.694, 3306.012 2133.679, 3308.376 2126.715 C 3310.449 2120.609, 3310.874 1977.649, 3308.839 1970.858 C 3307.337 1965.843, 3301.882 1959.518, 3296.643 1956.716 L 3292.500 1954.500 3222 1954.255 C 3136.821 1953.958, 3050.573 1958.104, 3041 1962.955 C 3034.571 1966.213, 3025.397 1972.485, 3018.909 1978.059 L 3013.317 1982.862 3007.909 1978.357 C 3000.608 1972.278, 2992.637 1966.859, 2986 1963.463 L 2980.500 1960.649 2928 1957.374 C 2875.526 1954.101, 2743.715 1952.448, 2733.500 1954.935 M 394.429 1973.893 C 379.345 1980.744, 377.836 2003.788, 391.836 2013.494 C 401.602 2020.265, 414.479 2016.445, 420.250 2005.064 C 427.821 1990.133, 418.098 1972.044, 402.500 1972.044 C 400.300 1972.044, 396.668 1972.876, 394.429 1973.893 M 394.984 1978.849 C 387.871 1982.625, 384.355 1995.009, 388.262 2002.523 C 396.682 2018.716, 418.476 2012.880, 418.494 1994.427 C 418.507 1981.075, 406.180 1972.907, 394.984 1978.849 M 453.844 1980.394 C 421.723 1991.868, 415.707 2037.502, 443.734 2057.082 C 475.151 2079.031, 515.262 2043.293, 501.086 2005.983 C 493.340 1985.598, 471.855 1973.960, 453.844 1980.394 M 452.222 1991.047 C 428.687 2002.808, 428.041 2038.738, 451.136 2051.529 C 461.799 2057.435, 478.205 2055.001, 486.089 2046.343 C 510.993 2018.995, 484.115 1975.110, 452.222 1991.047 M 2924.913 1992.207 C 2918.191 1997.686, 2921.836 2006, 2930.961 2006 C 2979.522 2006, 3002.920 2050.727, 2979.108 2098.038 C 2968.734 2118.650, 2968.825 2128.493, 2979.476 2137.845 L 2983.070 2141 3013.219 2141 L 3043.368 2141 3047.999 2136.195 C 3057.028 2126.827, 3057.007 2117.630, 3047.914 2099.737 C 3023.013 2050.736, 3042.486 2010.718, 3093.463 2006.127 C 3099.975 2005.541, 3100.575 2005.280, 3102.713 2002.102 C 3105.570 1997.857, 3105.568 1997.829, 3102.305 1993.951 L 3099.611 1990.749 3087.055 1991.263 C 3035.268 1993.384, 3001.505 2057.754, 3027.575 2104.662 C 3031.584 2111.875, 3031.850 2115.443, 3028.726 2120.078 C 3015.596 2139.562, 2986.614 2124.325, 2998.919 2104.407 C 3020.709 2069.137, 2997.551 2006.468, 2958.072 1993.874 C 2949.852 1991.251, 2927.467 1990.126, 2924.913 1992.207 M 2923 2028.511 C 2892.666 2038.563, 2890.808 2085.319, 2920.218 2098.518 C 2948.769 2111.330, 2977.458 2077.628, 2963.349 2047.849 C 2955.681 2031.664, 2938.431 2023.397, 2923 2028.511 M 3083.005 2028.607 C 3052.276 2039.773, 3050.895 2085.075, 3080.865 2098.796 C 3106.380 2110.477, 3133.910 2082.108, 3125.126 2053.187 C 3119.229 2033.774, 3099.873 2022.478, 3083.005 2028.607 M 556 2036.843 C 556 2055.804, 542.662 2070.940, 518.272 2079.657 C 490.915 2089.434, 473.033 2108.391, 465.863 2135.218 C 465.170 2137.813, 464.849 2140.182, 465.149 2140.483 C 465.555 2140.889, 561.041 2154, 563.591 2154 C 564.517 2154, 562.623 2148.255, 559.471 2141.500 C 553.070 2127.782, 541.883 2117.126, 525.056 2108.719 L 516.611 2104.500 522.506 2104.194 C 545.956 2102.977, 568.189 2118.486, 580.749 2144.820 C 583.193 2149.946, 585.337 2153.996, 585.512 2153.820 C 586.488 2152.840, 590.357 2135.058, 591.560 2126.022 C 596.661 2087.713, 586.618 2056.254, 562.582 2035.250 C 556.328 2029.785, 556 2029.864, 556 2036.843 M 2928.564 2044.163 C 2910.360 2048.247, 2908.704 2076.129, 2926.232 2083.452 C 2943.457 2090.650, 2958.872 2069.235, 2948.500 2052.517 C 2944.078 2045.390, 2936.762 2042.324, 2928.564 2044.163 M 3088.177 2044.205 C 3074.072 2047.276, 3069.035 2069.501, 3080.132 2079.702 C 3096.459 2094.712, 3119.262 2075.138, 3109.606 2054.401 C 3105.617 2045.834, 3097.793 2042.112, 3088.177 2044.205 M 378 2095.406 L 378 2145 393.039 2145 L 408.079 2145 407.789 2100.572 C 407.509 2057.494, 407.437 2056.060, 405.438 2053.384 C 401.066 2047.531, 398.635 2046.527, 387.930 2046.156 L 378 2045.813 378 2095.406 M 2963.296 2159.004 C 2946.020 2168.911, 2950.052 2195.823, 2969.443 2200.044 C 2979.832 2202.305, 3056.782 2200.887, 3061.500 2198.347 C 3077.520 2189.726, 3077.876 2167.025, 3062.120 2158.794 L 3056.772 2156 3012.636 2156.009 L 2968.500 2156.019 2963.296 2159.004 M 3690 2214 L 3690 2247 3660.500 2247 L 3631 2247 3631 2279 L 3631 2311 3601 2311 L 3571 2311 3571 2365 L 3571 2419 3601 2419 L 3631 2419 3631 2451 L 3631 2483 3660.500 2483 L 3690 2483 3690 2516 L 3690 2549 3739.500 2549 L 3789 2549 3789 2516 L 3789 2483 3818 2483 L 3847 2483 3847 2451 L 3847 2419 3878 2419 L 3909 2419 3909 2365 L 3909 2311 3878 2311 L 3847 2311 3847 2279 L 3847 2247 3818 2247 L 3789 2247 3789 2214 L 3789 2181 3739.500 2181 L 3690 2181 3690 2214 M 1718 2226 L 1718 2252 1695 2252 L 1672 2252 1672 2277 L 1672 2302 1648 2302 L 1624 2302 1624 2344.500 L 1624 2387 1648 2387 L 1672 2387 1672 2412 L 1672 2437 1695 2437 L 1718 2437 1718 2463 L 1718 2489 1757 2489 L 1796 2489 1796 2463 L 1796 2437 1818.500 2437 L 1841 2437 1841 2412 L 1841 2387 1865.500 2387 L 1890 2387 1890 2344.500 L 1890 2302 1865.500 2302 L 1841 2302 1841 2277 L 1841 2252 1818.500 2252 L 1796 2252 1796 2226 L 1796 2200 1757 2200 L 1718 2200 1718 2226 M 3723.500 2276.656 C 3657.843 2290.659, 3634.500 2381.707, 3683.902 2431.108 C 3723.468 2470.675, 3787.438 2458.933, 3812.520 2407.500 C 3845.257 2340.369, 3791.973 2262.053, 3723.500 2276.656 M 31 2356 L 31 2436 75 2436 L 119 2436 119 2356 L 119 2276 75 2276 L 31 2276 31 2356 M 267.756 2358.721 L 267.500 2436.500 193.750 2436.756 L 120 2437.013 120 2517.006 L 120 2597 75.467 2597 L 30.933 2597 31.217 2678.750 L 31.500 2760.500 34 2765.499 C 36.918 2771.333, 41.097 2774.426, 48.086 2775.925 C 54.909 2777.388, 412.417 2777.425, 430.605 2775.964 C 518.975 2768.867, 586.843 2694.001, 592.614 2597.250 L 593.285 2586 411.142 2586 L 229 2586 229 2515.500 L 229 2445 310.250 2444.978 C 401.210 2444.953, 396.609 2445.313, 402.346 2437.790 C 408.075 2430.279, 408 2431.283, 408 2362.556 C 408 2294.436, 407.826 2291.934, 402.768 2287.308 C 396.150 2281.256, 399.344 2281.526, 330.756 2281.221 L 268.012 2280.942 267.756 2358.721 M 1744.112 2287.581 C 1703.246 2298.571, 1689.825 2355.996, 1720.892 2386.933 C 1755.312 2421.209, 1810.337 2394.775, 1810.261 2344 C 1810.203 2306.060, 1777.887 2278.497, 1744.112 2287.581 M 3729 2304.563 C 3681.764 2314.764, 3667.390 2382.326, 3705.799 2413.614 C 3743.092 2443.993, 3795.898 2415.476, 3795.985 2364.910 C 3796.051 2326.428, 3763.509 2297.110, 3729 2304.563 M 2527 2560.301 C 2499.264 2566.686, 2486.310 2597.539, 2490.458 2647.336 L 2491.180 2656 2515.590 2656 L 2540 2656 2540 2716 L 2540 2776 2584.500 2776 C 2608.975 2776, 2629 2775.840, 2629 2775.645 C 2629 2775.449, 2631.215 2764.662, 2633.922 2751.673 C 2642.519 2710.427, 2643.016 2710.020, 2691.500 2704.448 C 2731.154 2699.891, 2727.655 2700.652, 2728.452 2696.404 C 2728.818 2694.454, 2729.325 2692.316, 2729.579 2691.654 C 2729.890 2690.844, 2727.810 2690.098, 2723.233 2689.377 C 2696.673 2685.195, 2676.762 2659.477, 2676.804 2629.406 L 2676.818 2619.312 2671.659 2616.244 C 2656.373 2607.154, 2619.682 2600.857, 2589.654 2602.170 L 2580.368 2602.576 2578.766 2594.827 C 2573.294 2568.366, 2552.426 2554.448, 2527 2560.301 M 1005.734 2561.036 C 981.638 2567.046, 971 2588.828, 971 2632.160 L 971 2657 995.500 2657 L 1020 2657 1020 2717 L 1020 2777 1064.763 2777 L 1109.527 2777 1113.930 2754.750 C 1122.693 2710.464, 1122.463 2710.650, 1175.943 2704.501 C 1192.687 2702.575, 1206.705 2701, 1207.095 2701 C 1207.963 2701, 1210 2695.359, 1210 2692.958 C 1210 2691.604, 1208.612 2690.969, 1203.796 2690.121 C 1177.215 2685.439, 1158.010 2660.932, 1157.504 2631.047 L 1157.310 2619.595 1151.405 2616.291 C 1136.590 2608.001, 1115.950 2604.029, 1083.735 2603.266 L 1060.970 2602.728 1060.396 2600.114 C 1055.783 2579.096, 1049.391 2569.183, 1036.734 2563.421 C 1029.896 2560.307, 1013.663 2559.059, 1005.734 2561.036 M 2432 2589.500 L 2432 2600 2454.500 2600 L 2477 2600 2477 2589.500 L 2477 2579 2454.500 2579 L 2432 2579 2432 2589.500 M 912 2590.500 L 912 2601 935 2601 L 958 2601 958 2590.500 L 958 2580 935 2580 L 912 2580 912 2590.500 M 2721.500 2583.386 C 2699.446 2588.749, 2684.270 2613.062, 2687.811 2637.357 C 2695.456 2689.812, 2763.657 2692.412, 2774.667 2640.668 C 2781.946 2606.456, 2753.346 2575.642, 2721.500 2583.386 M 1198.287 2584.945 C 1150.808 2602.325, 1162.013 2678.500, 1212.048 2678.500 C 1259.811 2678.500, 1273.695 2608.190, 1230.164 2586.760 C 1221.713 2582.600, 1206.984 2581.761, 1198.287 2584.945 M 1204.951 2597.314 C 1188.735 2601.859, 1178.350 2618.892, 1181.143 2636.362 C 1186.373 2669.080, 1225.730 2675.638, 1240.219 2646.206 C 1252.464 2621.334, 1230.059 2590.275, 1204.951 2597.314 M 2721.233 2597.668 C 2704.452 2603.607, 2695.130 2628.048, 2703.135 2645.120 C 2718.617 2678.139, 2762.503 2666.961, 2762.499 2630 C 2762.496 2606.501, 2741.892 2590.357, 2721.233 2597.668 M 1204.852 2606.331 C 1178.703 2616.101, 1185.956 2657.231, 1213.582 2655.836 C 1243.010 2654.350, 1243.047 2607.871, 1213.622 2605.399 C 1210.667 2605.151, 1206.956 2605.545, 1204.852 2606.331 M 2721.195 2607.132 C 2705.940 2614.684, 2703.569 2638.247, 2716.857 2650.252 C 2731.270 2663.273, 2753.107 2652.997, 2754.759 2632.417 C 2756.349 2612.604, 2738.026 2598.801, 2721.195 2607.132 M 2432 2677 L 2432 2747 2454.500 2747 L 2477 2747 2477 2677 L 2477 2607 2454.500 2607 L 2432 2607 2432 2677 M 912 2678 L 912 2748 935 2748 L 958 2748 958 2678 L 958 2608 935 2608 L 912 2608 912 2678 M 1086.176 2622.070 C 1046.468 2629.884, 1039.995 2688.103, 1076.820 2706.232 C 1118.145 2726.577, 1153.551 2664.649, 1118.924 2632.590 C 1108.903 2623.313, 1097.871 2619.769, 1086.176 2622.070 M 2600.329 2622.874 C 2569.782 2634.222, 2561.856 2675.819, 2585.948 2698.354 C 2610.669 2721.478, 2648.525 2704.926, 2652.551 2669.232 C 2655.885 2639.674, 2626.153 2613.282, 2600.329 2622.874 M 2604.803 2633.351 C 2570.840 2642.844, 2576.958 2697.357, 2612 2697.475 C 2650.279 2697.603, 2652.585 2636.756, 2614.459 2632.581 C 2611.651 2632.274, 2607.463 2632.608, 2604.803 2633.351 M 1083.703 2634.442 C 1069.542 2639.493, 1062.358 2651.207, 1063.206 2667.860 C 1065.301 2709.012, 1122.319 2707.703, 1122.457 2666.500 C 1122.534 2643.438, 1103.235 2627.475, 1083.703 2634.442 M 2491 2722.500 L 2491 2776 2510 2776 L 2529 2776 2529 2722.500 L 2529 2669 2510 2669 L 2491 2669 2491 2722.500 M 971 2723.500 L 971 2777 990 2777 L 1009 2777 1009 2723.500 L 1009 2670 990 2670 L 971 2670 971 2723.500 M 2693.500 2712.533 C 2649.459 2717.757, 2650.291 2717.108, 2643.013 2751.917 C 2640.781 2762.597, 2638.689 2772.390, 2638.365 2773.680 L 2637.777 2776.026 2672.638 2775.763 L 2707.500 2775.500 2711.148 2761.500 C 2715.566 2744.547, 2718.579 2746.219, 2689.594 2749.540 C 2662.879 2752.601, 2662 2752.520, 2662 2747 C 2662 2742.341, 2663.769 2741.840, 2691.289 2738.710 C 2705.705 2737.070, 2717.628 2735.624, 2717.785 2735.496 C 2717.941 2735.368, 2719.426 2730.142, 2721.083 2723.882 C 2722.741 2717.622, 2724.331 2711.713, 2724.616 2710.750 C 2725.252 2708.604, 2727.913 2708.451, 2693.500 2712.533 M 1173.500 2713.181 C 1130.488 2718.214, 1130.907 2717.879, 1123.458 2753.200 C 1121.006 2764.825, 1119 2774.936, 1119 2775.668 C 1119 2776.751, 1125.432 2777, 1153.461 2777 L 1187.923 2777 1189.020 2772.750 C 1189.624 2770.412, 1191.216 2764.389, 1192.559 2759.365 C 1193.901 2754.341, 1195 2749.592, 1195 2748.811 C 1195 2747.624, 1191.069 2747.843, 1170.862 2750.158 C 1145.814 2753.027, 1143.752 2752.945, 1142.512 2749.039 C 1140.638 2743.133, 1141.866 2742.722, 1171 2739.518 C 1183.925 2738.096, 1195.439 2736.733, 1196.588 2736.488 C 1198.456 2736.090, 1205 2716.363, 1205 2711.128 C 1205 2709.617, 1202.633 2709.772, 1173.500 2713.181 M 2432 2765 L 2432 2776 2454.500 2776 L 2477 2776 2477 2765 L 2477 2754 2454.500 2754 L 2432 2754 2432 2765 M 912 2766 L 912 2777 935 2777 L 958 2777 958 2766 L 958 2755 935 2755 L 912 2755 912 2766 M 1888.500 2831.048 L 1858.500 2844.951 1858.229 2864.459 L 1857.958 2883.967 1860.729 2882.936 C 1871.429 2878.956, 1917.650 2860.546, 1918.270 2860.016 C 1918.694 2859.655, 1918.919 2849.861, 1918.770 2838.252 L 1918.500 2817.145 1888.500 2831.048 M 277.831 2890.953 C 174.133 2910.019, 186.382 3074.500, 291.500 3074.500 C 402.439 3074.500, 405.377 2894.317, 294.500 2890.506 C 287.900 2890.280, 280.399 2890.480, 277.831 2890.953 M 1161.164 2891.053 C 1056.365 2909.820, 1072.232 3078.490, 1178.444 3074.745 C 1287.542 3070.897, 1287.116 2894.143, 1178 2890.483 C 1171.675 2890.271, 1164.099 2890.527, 1161.164 2891.053 M 1872.669 2891.526 C 1828.318 2899.928, 1798.622 2943.974, 1803.949 2993.452 C 1816.379 3108.900, 1973.491 3098.746, 1973.416 2982.500 C 1973.378 2922.748, 1927.333 2881.170, 1872.669 2891.526 M 2239.047 2891.070 C 2147.783 2907.344, 2143.362 3050.035, 2233.410 3072.984 C 2295.796 3088.884, 2350.393 3029.412, 2336.226 2960.987 C 2326.413 2913.593, 2283.973 2883.058, 2239.047 2891.070 M 2642.500 2891.503 C 2551.953 2908.613, 2548.714 3051.541, 2638.386 3073.041 C 2700.403 3087.909, 2753.066 3032.120, 2741.385 2963.926 C 2732.881 2914.272, 2689.632 2882.597, 2642.500 2891.503 M 105.500 2891.685 C 53.213 2896.240, 20.874 2948.234, 33.409 3007.593 C 49.571 3084.130, 144.851 3100.501, 188.146 3034.179 L 193 3026.743 193 2997.872 L 193 2969 150.500 2969 L 108 2969 108 2989.479 L 108 3009.959 128.134 3010.229 L 148.267 3010.500 144.079 3014.687 C 113.396 3045.360, 69.768 3003.920, 88.589 2961.980 C 96.759 2943.776, 123.764 2937.941, 134.244 2952.116 L 136.376 2955 164.188 2955 C 195.883 2955, 193.046 2956.061, 190.478 2945.168 C 181.979 2909.117, 148.350 2887.951, 105.500 2891.685 M 3510 2892.015 C 3421.608 2904.133, 3413.935 3049.976, 3500.500 3072.575 C 3547.462 3084.835, 3602 3048.682, 3602 3005.290 L 3602 3003 3574.520 3003 L 3547.041 3003 3545.105 3006.750 C 3534.020 3028.227, 3505.955 3026.094, 3496.796 3003.079 C 3480.488 2962.102, 3521.067 2923.114, 3543.953 2957.771 L 3547.405 2963 3574.703 2963 L 3602 2963 3602 2960.612 C 3602 2920.983, 3554.894 2885.860, 3510 2892.015 M 394 2983.513 L 394 3074.160 444.250 3073.733 C 499.438 3073.263, 500.874 3073.121, 513.135 3066.932 C 544.492 3051.103, 545.018 2998.747, 513.969 2984.063 L 507.953 2981.218 513.255 2978.225 C 541.243 2962.430, 539.455 2914.426, 510.328 2899.666 C 498.720 2893.784, 497.777 2893.693, 443.750 2893.263 L 394 2892.866 394 2983.513 M 553 2983.500 L 553 3074 579.500 3074 L 606 3074 606 2983.500 L 606 2893 579.500 2893 L 553 2893 553 2983.500 M 628 2983.500 L 628 3074 683.500 3074 L 739 3074 739 3051 L 739 3028 710 3028 L 681 3028 681 3015.500 L 681 3003 706.500 3003 L 732 3003 732 2981.500 L 732 2960 706.500 2960 L 681 2960 681 2949.500 L 681 2939 710 2939 L 739 2939 739 2916 L 739 2893 683.500 2893 L 628 2893 628 2983.500 M 758 2983.436 L 758 3074 783.986 3074 L 809.972 3074 810.236 3042.761 L 810.500 3011.522 825.499 3042.761 L 840.497 3074 869.322 3074 C 892.122 3074, 898.079 3073.735, 897.823 3072.730 C 897.645 3072.032, 889.693 3056.477, 880.151 3038.163 C 870.609 3019.849, 862.959 3004.783, 863.151 3004.683 C 863.343 3004.582, 866.489 3003.013, 870.143 3001.196 C 908.154 2982.293, 906.670 2919.023, 867.773 2900.096 C 854.685 2893.727, 853.957 2893.649, 803.750 2893.243 L 758 2892.873 758 2983.436 M 913 2983.500 L 913 3074 939.490 3074 L 965.979 3074 966.240 3029.871 L 966.500 2985.742 993.078 3029.621 L 1019.655 3073.500 1045.828 3073.767 L 1072 3074.033 1072 2983.517 L 1072 2893 1046 2893 L 1020 2893 1019.987 2938.250 L 1019.975 2983.500 992.957 2938.250 L 965.940 2893 939.470 2893 L 913 2893 913 2983.500 M 1336.109 2982.750 C 1319.530 3032.113, 1305.972 3072.838, 1305.982 3073.250 C 1305.992 3073.662, 1318.356 3074, 1333.457 3074 L 1360.914 3074 1363.882 3064.250 C 1365.515 3058.887, 1367.405 3052.588, 1368.084 3050.250 L 1369.317 3046 1396.115 3046 L 1422.914 3046 1425.882 3055.750 C 1427.515 3061.113, 1429.405 3067.412, 1430.084 3069.750 L 1431.317 3074 1459.265 3074 C 1481.203 3074, 1487.115 3073.731, 1486.754 3072.750 C 1486.501 3072.063, 1472.916 3031.338, 1456.564 2982.250 L 1426.833 2893 1396.544 2893 L 1366.255 2893 1336.109 2982.750 M 1496.023 2942.750 C 1496.071 3048.841, 1510.350 3075, 1568.213 3075 C 1627.379 3075, 1642.964 3049.102, 1642.987 2950.750 L 1643 2893 1617.040 2893 L 1591.079 2893 1590.790 2948.750 C 1590.474 3009.432, 1590.561 3008.496, 1584.702 3014.868 C 1577.191 3023.038, 1560.058 3022.755, 1554.352 3014.367 C 1549.359 3007.025, 1549.518 3009.047, 1549.211 2949.250 L 1548.922 2893 1522.461 2893 L 1496 2893 1496.023 2942.750 M 1655 2916 L 1655 2939 1677 2939 L 1699 2939 1699 3006.500 L 1699 3074 1725 3074 L 1751 3074 1751 3006.500 L 1751 2939 1773 2939 L 1795 2939 1795 2916 L 1795 2893 1725 2893 L 1655 2893 1655 2916 M 1991 2983.484 L 1991 3074 2017.490 3074 L 2043.979 3074 2044.240 3029.871 L 2044.500 2985.742 2071.078 3029.621 L 2097.655 3073.500 2123.828 3073.767 L 2150 3074.033 2150 2983.517 L 2150 2893 2124.010 2893 L 2098.020 2893 2097.760 2937.930 L 2097.500 2982.861 2070.873 2938.180 L 2044.247 2893.500 2017.623 2893.234 L 1991 2892.967 1991 2983.484 M 2356 2983.486 L 2356 3074 2382.489 3074 L 2408.978 3074 2409.239 3032.271 L 2409.500 2990.542 2419.936 3027.521 C 2425.675 3047.859, 2430.999 3066.646, 2431.766 3069.269 L 2433.161 3074.037 2455.693 3073.769 L 2478.225 3073.500 2490.362 3030.662 L 2502.500 2987.825 2502.761 3030.912 L 2503.021 3074 2529.011 3074 L 2555 3074 2555 2983.486 L 2555 2892.972 2522.924 2893.236 L 2490.848 2893.500 2473.690 2945.750 C 2453.243 3008.015, 2458.878 3008.017, 2437.932 2945.737 L 2420.363 2893.500 2388.182 2893.236 L 2356 2892.972 2356 2983.486 M 2800 2983.500 L 2800 3074 2826.500 3074 L 2853 3074 2853.081 3031.750 L 2853.162 2989.500 2865.223 3031.768 L 2877.285 3074.037 2899.850 3073.768 L 2922.415 3073.500 2934.457 3031.006 L 2946.500 2988.512 2946.761 3031.256 L 2947.021 3074 2973.011 3074 L 2999 3074 2999 2983.500 L 2999 2893 2967.046 2893 L 2935.092 2893 2923.551 2928.250 C 2917.203 2947.637, 2909.372 2971.522, 2906.150 2981.327 L 2900.290 2999.154 2889.283 2966.827 C 2883.229 2949.047, 2875.185 2925.162, 2871.406 2913.750 L 2864.537 2893 2832.268 2893 L 2800 2893 2800 2983.500 M 3021.224 2954.750 L 3021.534 3016.500 3024.333 3025.500 C 3046.420 3096.505, 3150.042 3090.981, 3165.024 3018 C 3166.824 3009.230, 3166.975 3004.064, 3166.987 2950.750 L 3167 2893 3141.040 2893 L 3115.079 2893 3114.790 2948.750 C 3114.467 3010.800, 3114.604 3009.557, 3107.380 3016.114 C 3099.527 3023.242, 3083.743 3022.291, 3078.352 3014.367 C 3073.359 3007.025, 3073.518 3009.047, 3073.211 2949.250 L 3072.922 2893 3046.918 2893 L 3020.914 2893 3021.224 2954.750 M 3189 2983.500 L 3189 3074 3214.990 3074 L 3240.979 3074 3241.240 3029.598 L 3241.500 2985.196 3268.397 3029.598 L 3295.294 3074 3321.647 3074 L 3348 3074 3348 2983.500 L 3348 2893 3321.510 2893 L 3295.021 2893 3294.760 2937.693 L 3294.500 2982.386 3268 2937.719 L 3241.500 2893.053 3215.250 2893.027 L 3189 2893 3189 2983.500 M 3370 2983.500 L 3370 3074 3396.500 3074 L 3423 3074 3423 2983.500 L 3423 2893 3396.500 2893 L 3370 2893 3370 2983.500 M 3620 2983.500 L 3620 3074 3646.500 3074 L 3673 3074 3673 2983.500 L 3673 2893 3646.500 2893 L 3620 2893 3620 2983.500 M 3695 2983.434 L 3695 3074 3721.500 3074 L 3748 3074 3748 3045.653 L 3748 3017.307 3764.250 3016.678 C 3789.944 3015.684, 3801.570 3011.564, 3814 2999.046 C 3841.453 2971.398, 3834.024 2915.474, 3800.846 2900.031 C 3787.311 2893.731, 3786.607 2893.654, 3738.750 2893.243 L 3695 2892.868 3695 2983.434 M 3893.908 2895.735 C 3893.328 2897.256, 3879.844 2937.256, 3863.944 2984.624 C 3848.043 3031.992, 3834.753 3071.480, 3834.410 3072.374 C 3833.843 3073.851, 3836.337 3074, 3861.685 3074 L 3889.583 3074 3893.642 3060.250 L 3897.700 3046.500 3924.637 3046.234 L 3951.574 3045.969 3955.637 3059.734 L 3959.700 3073.500 3987.350 3073.766 C 4009.132 3073.975, 4014.998 3073.763, 4014.989 3072.766 C 4014.983 3072.070, 4001.534 3031.450, 3985.102 2982.500 L 3955.226 2893.500 3925.094 2893.235 L 3894.962 2892.971 3893.908 2895.735 M 4026 2983.500 L 4026 3074 4077 3074 L 4128 3074 4128 3052 L 4128 3030 4103.500 3030 L 4079 3030 4079 2961.500 L 4079 2893 4052.500 2893 L 4026 2893 4026 2983.500 M 447 2951 L 447 2963 458.351 2963 C 475.195 2963, 479 2960.878, 479 2951.486 C 479 2941.115, 475.604 2939, 458.953 2939 L 447 2939 447 2951 M 3748 2955 L 3748 2971 3757.032 2971 C 3772.794 2971, 3777.354 2967.144, 3776.785 2954.298 C 3776.267 2942.611, 3771.323 2939.017, 3755.750 2939.006 L 3748 2939 3748 2955 M 810 2956.100 L 810 2971.201 822.796 2970.850 C 840.057 2970.378, 844.113 2967.708, 844.211 2956.752 C 844.319 2944.736, 838.948 2941.057, 821.250 2941.022 L 810 2941 810 2956.100 M 281.372 2944.776 C 254.338 2954.443, 251.638 3005.278, 277.458 3018.482 C 301.212 3030.630, 322.394 3013.669, 322.394 2982.500 C 322.394 2953.191, 304.321 2936.571, 281.372 2944.776 M 1166.500 2944.338 C 1132.225 2955.695, 1137.076 3018.056, 1172.519 3021.714 C 1192.165 3023.742, 1205.305 3009.816, 1206.691 2985.500 C 1208.348 2956.432, 1189.196 2936.818, 1166.500 2944.338 M 1879.173 2944.419 C 1851.076 2953.609, 1848.760 3006.833, 1875.911 3019.375 C 1899.321 3030.188, 1919.441 3013.144, 1919.441 2982.500 C 1919.441 2953.194, 1902.198 2936.888, 1879.173 2944.419 M 2244.500 2944.338 C 2210.225 2955.695, 2215.076 3018.056, 2250.519 3021.714 C 2270.165 3023.742, 2283.305 3009.816, 2284.691 2985.500 C 2286.348 2956.432, 2267.196 2936.818, 2244.500 2944.338 M 2649.718 2944.029 C 2633.449 2948.130, 2623.555 2968.020, 2626.779 2990.142 C 2632.986 3032.724, 2683.126 3033.188, 2689.033 2990.719 C 2693.298 2960.052, 2674.538 2937.772, 2649.718 2944.029 M 1396.009 2957 C 1395.926 2957.275, 1392.826 2967.625, 1389.119 2980 L 1382.379 3002.500 1395.827 3002.779 C 1403.224 3002.933, 1409.460 3002.873, 1409.687 3002.647 C 1409.913 3002.420, 1407.144 2992.395, 1403.533 2980.367 C 1396.642 2957.417, 1396.249 2956.195, 1396.009 2957 M 3917.610 2979.610 C 3913.899 2992.032, 3911.056 3002.390, 3911.294 3002.627 C 3911.531 3002.864, 3917.784 3002.933, 3925.190 3002.779 L 3938.654 3002.500 3931.954 2980.211 C 3928.269 2967.951, 3925.053 2957.719, 3924.806 2957.473 C 3924.560 2957.226, 3921.322 2967.188, 3917.610 2979.610 M 447 3015 L 447 3027 461.050 3027 C 480.263 3027, 484.722 3023.992, 482.564 3012.488 C 481.097 3004.670, 476.927 3003, 458.875 3003 L 447 3003 447 3015" stroke="none" fill="#ffffff" fill-rule="evenodd"/><path d="M 1260 1778 L 1260 1837 1465.500 1837 L 1671 1837 1671 1778 L 1671 1719 1465.500 1719 L 1260 1719 1260 1778 M 2899 1778 L 2899 1837 3103.572 1837 L 3308.144 1837 3375.822 1807.922 C 3413.045 1791.929, 3443.806 1778.542, 3444.180 1778.172 C 3444.554 1777.803, 3414.230 1764.338, 3376.793 1748.250 L 3308.727 1719 3103.863 1719 L 2899 1719 2899 1778" stroke="none" fill="#ff0000" fill-rule="evenodd"/><path d="M 2059.113 76.545 C 2043.458 79.941, 2027.298 87.762, 2014.887 97.948 C 2004.704 106.306, 1676.140 464.212, 1669.282 474.417 C 1600.360 576.977, 1710.906 711.319, 1810.960 646.594 C 1823.580 638.431, 1824.301 637.674, 1953.268 497.220 C 2022.597 421.716, 2079.622 360.066, 2079.990 360.220 C 2080.358 360.374, 2136.606 421.475, 2204.984 496 C 2345.278 648.905, 2339.581 643.141, 2360.210 653.026 C 2461.522 701.570, 2557.373 566.070, 2488.353 471.877 C 2479.705 460.075, 2151.670 103.556, 2143.445 97.020 C 2120.214 78.560, 2086.998 70.495, 2059.113 76.545 M 1417 545.451 C 1398.319 548.521, 1379.666 557.486, 1364.991 570.448 C 1358.395 576.274, 1234.912 710.558, 722.631 1268.996 C 697.631 1296.249, 691.436 1305.533, 684.594 1326.002 C 660.467 1398.181, 704.234 1475.503, 774 1483.951 C 791.194 1486.033, 1553.697 1484.882, 1562 1482.761 C 1677.023 1453.381, 1678.208 1282.793, 1563.609 1251.228 C 1557.982 1249.679, 1537.408 1249.505, 1302.817 1249.023 L 1048.134 1248.500 1239.929 1039.546 C 1345.416 924.621, 1432.141 830.453, 1432.651 830.283 C 1433.162 830.113, 1562.936 970.912, 1721.039 1143.170 C 1931.221 1372.169, 2010.651 1458.073, 2016.500 1462.714 C 2051.814 1490.734, 2100.722 1492.015, 2138.500 1465.909 C 2149.046 1458.622, 2144.020 1464.031, 2444.842 1136.207 C 2599.427 967.746, 2726.082 829.821, 2726.297 829.707 C 2726.512 829.593, 2813.225 923.775, 2918.993 1039 L 3111.298 1248.500 2856.399 1249.009 L 2601.500 1249.517 2592.121 1252.274 C 2483.012 1284.341, 2484.068 1451.568, 2593.571 1481.762 L 2603.500 1484.500 2996 1484.500 L 3388.500 1484.500 3398.119 1481.841 C 3479.789 1459.263, 3509.475 1349.927, 3451.500 1285.236 C 3439.196 1271.507, 2808.461 584.227, 2802.112 577.631 C 2762.031 535.991, 2699.156 533.103, 2657.695 570.996 C 2654.791 573.649, 2523.583 716.181, 2366.120 887.733 L 2079.825 1199.645 2074.070 1193.572 C 2070.905 1190.233, 1942.433 1050.250, 1788.576 882.500 C 1634.720 714.750, 1506.736 575.538, 1504.168 573.139 C 1480.314 550.857, 1447.511 540.437, 1417 545.451 M 2072.613 559.059 C 2064.009 561.199, 2061.071 564.078, 2003.293 627 C 1918.902 718.906, 1918.882 702.809, 2003.500 795.006 C 2068.905 866.270, 2065.800 863.541, 2080.719 862.859 C 2094.582 862.224, 2091.638 864.886, 2156.127 794.677 C 2240.705 702.598, 2240.603 718.935, 2157.168 628.088 C 2127.286 595.551, 2101.636 567.772, 2100.168 566.358 C 2093.907 560.325, 2081.132 556.941, 2072.613 559.059 M 2713.831 988.955 C 2643.350 1001.884, 2616.484 1095.061, 2667.880 1148.324 C 2717.456 1199.702, 2799.175 1169.465, 2810.644 1095.500 C 2820.074 1034.677, 2769.285 978.782, 2713.831 988.955 M 1425.613 993.055 C 1417.153 995.168, 1413.941 998.310, 1358.718 1058.499 C 1296.170 1126.673, 1298.500 1123.558, 1298.500 1139 C 1298.500 1150.728, 1301.546 1158.431, 1308.908 1165.317 C 1318.314 1174.115, 1308.944 1173.500, 1433.500 1173.500 L 1543.500 1173.500 1549.161 1170.720 C 1566.950 1161.984, 1573.528 1136.815, 1562.462 1119.822 C 1559.885 1115.865, 1460.611 1007.074, 1453.675 1000.607 C 1446.277 993.709, 1435.070 990.692, 1425.613 993.055 M 2489 1778 L 2489 1837 2693.500 1837 L 2898 1837 2898 1778 L 2898 1719 2693.500 1719 L 2489 1719 2489 1778 M 3719 1942.592 C 3651.885 1948.414, 3598.743 1965.341, 3547.500 1997.220 C 3312.553 2143.385, 3283.062 2503.955, 3490.807 2690.389 C 3745.417 2918.882, 4127.748 2723.479, 4127.473 2365 C 4127.286 2122.726, 3934.977 1923.856, 3719 1942.592 M 495.500 1950.674 C 488.903 1951.497, 477.354 1954.335, 469.441 1957.077 C 452.866 1962.820, 431.172 1963.074, 398.500 1957.909 C 391.350 1956.779, 383.813 1955.603, 381.750 1955.295 L 378 1954.737 378 1994.368 L 378 2034 390.032 2034 C 416.370 2034, 417 2035.498, 417 2098.159 L 417 2143 436.356 2143 L 455.713 2143 456.341 2136.250 C 459.342 2103.992, 472.872 2083.692, 500.352 2070.218 C 537.400 2052.053, 549.738 2035.421, 547.691 2006.405 C 545 1968.277, 525.060 1946.985, 495.500 1950.674 M 1680.007 1956.063 C 1673.835 1959.465, 1669.740 1963.069, 1667.014 1967.500 C 1665.471 1970.008, 1615.068 2111.777, 1401.975 2712.985 C 1389.936 2746.950, 1385.479 2760.691, 1386.322 2761.243 C 1456.086 2806.979, 1581.961 2747.917, 1618.081 2652.500 L 1621.867 2642.500 1756.998 2642.500 L 1892.128 2642.500 1896.467 2653.582 C 1926.234 2729.612, 1993.345 2776.315, 2069 2773.648 C 2096.251 2772.687, 2130.086 2764.146, 2128.419 2758.649 C 2109.136 2695.038, 1846.873 1969.117, 1840.756 1962.424 C 1831.439 1952.229, 1838.296 1952.997, 1756.790 1953.018 L 1685.500 1953.036 1680.007 1956.063 M 45.637 1955.465 C 31.306 1960.574, 31.550 1959.088, 31.212 2043.250 L 30.925 2115 75.462 2115 L 120 2115 120 2195 L 120 2275 174.500 2275 L 229 2275 229 2210 L 229 2145 297 2145 L 365 2145 365 2049.500 L 365 1954 207.250 1954.044 C 75.909 1954.080, 48.853 1954.318, 45.637 1955.465 M 700.312 1955.945 C 695.644 1958.064, 690.564 1964.309, 688.949 1969.911 C 688.242 1972.364, 688.008 2098.409, 688.207 2368 L 688.500 2762.500 691 2766.946 C 692.799 2770.146, 694.894 2772.108, 698.473 2773.946 L 703.445 2776.500 803.223 2776.773 L 903 2777.047 903 2678.523 L 903 2580 894 2580 L 885 2580 884.990 2276.250 L 884.980 1972.500 882.633 1967.459 C 880.123 1962.069, 875.499 1957.535, 870.282 1955.348 C 864.431 1952.896, 705.800 1953.453, 700.312 1955.945 M 2220.384 1955.913 C 2215.933 1957.934, 2211.960 1962.459, 2209.531 1968.272 C 2207.624 1972.835, 2207.160 2755.435, 2209.060 2762.277 C 2213.021 2776.541, 2208.459 2776, 2324.682 2776 L 2423 2776 2423 2677.500 L 2423 2579 2414.006 2579 L 2405.013 2579 2404.756 2275.250 L 2404.500 1971.500 2402.338 1967.500 C 2399.545 1962.334, 2394.473 1957.507, 2389.782 1955.551 C 2383.526 1952.941, 2226.187 1953.278, 2220.384 1955.913 M 2733.500 1954.935 C 2726.616 1956.611, 2721.015 1961.146, 2717.364 1968 C 2715.592 1971.328, 2715.500 1975.289, 2715.500 2048.500 L 2715.500 2125.500 2717.799 2130.488 C 2724.723 2145.509, 2716.930 2144.454, 2823.250 2144.771 L 2914 2145.041 2914 2450.824 L 2914 2756.607 2916.579 2761.782 C 2919.395 2767.434, 2925.078 2772.547, 2930.825 2774.600 C 2935.800 2776.376, 3088.205 2776.618, 3094.078 2774.859 C 3099.421 2773.258, 3104.068 2769.112, 3107.534 2762.856 L 3110.500 2757.500 3110.756 2451.271 L 3111.013 2145.041 3201.756 2144.771 L 3292.500 2144.500 3296.698 2142.256 C 3301.492 2139.694, 3306.012 2133.679, 3308.376 2126.715 C 3310.449 2120.609, 3310.874 1977.649, 3308.839 1970.858 C 3307.337 1965.843, 3301.882 1959.518, 3296.643 1956.716 L 3292.500 1954.500 3222 1954.255 C 3136.821 1953.958, 3050.573 1958.104, 3041 1962.955 C 3034.571 1966.213, 3025.397 1972.485, 3018.909 1978.059 L 3013.317 1982.862 3007.909 1978.357 C 3000.608 1972.278, 2992.637 1966.859, 2986 1963.463 L 2980.500 1960.649 2928 1957.374 C 2875.526 1954.101, 2743.715 1952.448, 2733.500 1954.935 M 394.429 1973.893 C 379.345 1980.744, 377.836 2003.788, 391.836 2013.494 C 401.602 2020.265, 414.479 2016.445, 420.250 2005.064 C 427.821 1990.133, 418.098 1972.044, 402.500 1972.044 C 400.300 1972.044, 396.668 1972.876, 394.429 1973.893 M 394.984 1978.849 C 387.871 1982.625, 384.355 1995.009, 388.262 2002.523 C 396.682 2018.716, 418.476 2012.880, 418.494 1994.427 C 418.507 1981.075, 406.180 1972.907, 394.984 1978.849 M 453.844 1980.394 C 421.723 1991.868, 415.707 2037.502, 443.734 2057.082 C 475.151 2079.031, 515.262 2043.293, 501.086 2005.983 C 493.340 1985.598, 471.855 1973.960, 453.844 1980.394 M 452.222 1991.047 C 428.687 2002.808, 428.041 2038.738, 451.136 2051.529 C 461.799 2057.435, 478.205 2055.001, 486.089 2046.343 C 510.993 2018.995, 484.115 1975.110, 452.222 1991.047 M 2924.913 1992.207 C 2918.191 1997.686, 2921.836 2006, 2930.961 2006 C 2979.522 2006, 3002.920 2050.727, 2979.108 2098.038 C 2968.734 2118.650, 2968.825 2128.493, 2979.476 2137.845 L 2983.070 2141 3013.219 2141 L 3043.368 2141 3047.999 2136.195 C 3057.028 2126.827, 3057.007 2117.630, 3047.914 2099.737 C 3023.013 2050.736, 3042.486 2010.718, 3093.463 2006.127 C 3099.975 2005.541, 3100.575 2005.280, 3102.713 2002.102 C 3105.570 1997.857, 3105.568 1997.829, 3102.305 1993.951 L 3099.611 1990.749 3087.055 1991.263 C 3035.268 1993.384, 3001.505 2057.754, 3027.575 2104.662 C 3031.584 2111.875, 3031.850 2115.443, 3028.726 2120.078 C 3015.596 2139.562, 2986.614 2124.325, 2998.919 2104.407 C 3020.709 2069.137, 2997.551 2006.468, 2958.072 1993.874 C 2949.852 1991.251, 2927.467 1990.126, 2924.913 1992.207 M 2923 2028.511 C 2892.666 2038.563, 2890.808 2085.319, 2920.218 2098.518 C 2948.769 2111.330, 2977.458 2077.628, 2963.349 2047.849 C 2955.681 2031.664, 2938.431 2023.397, 2923 2028.511 M 3083.005 2028.607 C 3052.276 2039.773, 3050.895 2085.075, 3080.865 2098.796 C 3106.380 2110.477, 3133.910 2082.108, 3125.126 2053.187 C 3119.229 2033.774, 3099.873 2022.478, 3083.005 2028.607 M 556 2036.843 C 556 2055.804, 542.662 2070.940, 518.272 2079.657 C 490.915 2089.434, 473.033 2108.391, 465.863 2135.218 C 465.170 2137.813, 464.849 2140.182, 465.149 2140.483 C 465.555 2140.889, 561.041 2154, 563.591 2154 C 564.517 2154, 562.623 2148.255, 559.471 2141.500 C 553.070 2127.782, 541.883 2117.126, 525.056 2108.719 L 516.611 2104.500 522.506 2104.194 C 545.956 2102.977, 568.189 2118.486, 580.749 2144.820 C 583.193 2149.946, 585.337 2153.996, 585.512 2153.820 C 586.488 2152.840, 590.357 2135.058, 591.560 2126.022 C 596.661 2087.713, 586.618 2056.254, 562.582 2035.250 C 556.328 2029.785, 556 2029.864, 556 2036.843 M 2928.564 2044.163 C 2910.360 2048.247, 2908.704 2076.129, 2926.232 2083.452 C 2943.457 2090.650, 2958.872 2069.235, 2948.500 2052.517 C 2944.078 2045.390, 2936.762 2042.324, 2928.564 2044.163 M 3088.177 2044.205 C 3074.072 2047.276, 3069.035 2069.501, 3080.132 2079.702 C 3096.459 2094.712, 3119.262 2075.138, 3109.606 2054.401 C 3105.617 2045.834, 3097.793 2042.112, 3088.177 2044.205 M 378 2095.406 L 378 2145 393.039 2145 L 408.079 2145 407.789 2100.572 C 407.509 2057.494, 407.437 2056.060, 405.438 2053.384 C 401.066 2047.531, 398.635 2046.527, 387.930 2046.156 L 378 2045.813 378 2095.406 M 2963.296 2159.004 C 2946.020 2168.911, 2950.052 2195.823, 2969.443 2200.044 C 2979.832 2202.305, 3056.782 2200.887, 3061.500 2198.347 C 3077.520 2189.726, 3077.876 2167.025, 3062.120 2158.794 L 3056.772 2156 3012.636 2156.009 L 2968.500 2156.019 2963.296 2159.004 M 3690 2214 L 3690 2247 3660.500 2247 L 3631 2247 3631 2279 L 3631 2311 3601 2311 L 3571 2311 3571 2365 L 3571 2419 3601 2419 L 3631 2419 3631 2451 L 3631 2483 3660.500 2483 L 3690 2483 3690 2516 L 3690 2549 3739.500 2549 L 3789 2549 3789 2516 L 3789 2483 3818 2483 L 3847 2483 3847 2451 L 3847 2419 3878 2419 L 3909 2419 3909 2365 L 3909 2311 3878 2311 L 3847 2311 3847 2279 L 3847 2247 3818 2247 L 3789 2247 3789 2214 L 3789 2181 3739.500 2181 L 3690 2181 3690 2214 M 1718 2226 L 1718 2252 1695 2252 L 1672 2252 1672 2277 L 1672 2302 1648 2302 L 1624 2302 1624 2344.500 L 1624 2387 1648 2387 L 1672 2387 1672 2412 L 1672 2437 1695 2437 L 1718 2437 1718 2463 L 1718 2489 1757 2489 L 1796 2489 1796 2463 L 1796 2437 1818.500 2437 L 1841 2437 1841 2412 L 1841 2387 1865.500 2387 L 1890 2387 1890 2344.500 L 1890 2302 1865.500 2302 L 1841 2302 1841 2277 L 1841 2252 1818.500 2252 L 1796 2252 1796 2226 L 1796 2200 1757 2200 L 1718 2200 1718 2226 M 3723.500 2276.656 C 3657.843 2290.659, 3634.500 2381.707, 3683.902 2431.108 C 3723.468 2470.675, 3787.438 2458.933, 3812.520 2407.500 C 3845.257 2340.369, 3791.973 2262.053, 3723.500 2276.656 M 31 2356 L 31 2436 75 2436 L 119 2436 119 2356 L 119 2276 75 2276 L 31 2276 31 2356 M 267.756 2358.721 L 267.500 2436.500 193.750 2436.756 L 120 2437.013 120 2517.006 L 120 2597 75.467 2597 L 30.933 2597 31.217 2678.750 L 31.500 2760.500 34 2765.499 C 36.918 2771.333, 41.097 2774.426, 48.086 2775.925 C 54.909 2777.388, 412.417 2777.425, 430.605 2775.964 C 518.975 2768.867, 586.843 2694.001, 592.614 2597.250 L 593.285 2586 411.142 2586 L 229 2586 229 2515.500 L 229 2445 310.250 2444.978 C 401.210 2444.953, 396.609 2445.313, 402.346 2437.790 C 408.075 2430.279, 408 2431.283, 408 2362.556 C 408 2294.436, 407.826 2291.934, 402.768 2287.308 C 396.150 2281.256, 399.344 2281.526, 330.756 2281.221 L 268.012 2280.942 267.756 2358.721 M 1744.112 2287.581 C 1703.246 2298.571, 1689.825 2355.996, 1720.892 2386.933 C 1755.312 2421.209, 1810.337 2394.775, 1810.261 2344 C 1810.203 2306.060, 1777.887 2278.497, 1744.112 2287.581 M 3729 2304.563 C 3681.764 2314.764, 3667.390 2382.326, 3705.799 2413.614 C 3743.092 2443.993, 3795.898 2415.476, 3795.985 2364.910 C 3796.051 2326.428, 3763.509 2297.110, 3729 2304.563 M 2527 2560.301 C 2499.264 2566.686, 2486.310 2597.539, 2490.458 2647.336 L 2491.180 2656 2515.590 2656 L 2540 2656 2540 2716 L 2540 2776 2584.500 2776 C 2608.975 2776, 2629 2775.840, 2629 2775.645 C 2629 2775.449, 2631.215 2764.662, 2633.922 2751.673 C 2642.519 2710.427, 2643.016 2710.020, 2691.500 2704.448 C 2731.154 2699.891, 2727.655 2700.652, 2728.452 2696.404 C 2728.818 2694.454, 2729.325 2692.316, 2729.579 2691.654 C 2729.890 2690.844, 2727.810 2690.098, 2723.233 2689.377 C 2696.673 2685.195, 2676.762 2659.477, 2676.804 2629.406 L 2676.818 2619.312 2671.659 2616.244 C 2656.373 2607.154, 2619.682 2600.857, 2589.654 2602.170 L 2580.368 2602.576 2578.766 2594.827 C 2573.294 2568.366, 2552.426 2554.448, 2527 2560.301 M 1005.734 2561.036 C 981.638 2567.046, 971 2588.828, 971 2632.160 L 971 2657 995.500 2657 L 1020 2657 1020 2717 L 1020 2777 1064.763 2777 L 1109.527 2777 1113.930 2754.750 C 1122.693 2710.464, 1122.463 2710.650, 1175.943 2704.501 C 1192.687 2702.575, 1206.705 2701, 1207.095 2701 C 1207.963 2701, 1210 2695.359, 1210 2692.958 C 1210 2691.604, 1208.612 2690.969, 1203.796 2690.121 C 1177.215 2685.439, 1158.010 2660.932, 1157.504 2631.047 L 1157.310 2619.595 1151.405 2616.291 C 1136.590 2608.001, 1115.950 2604.029, 1083.735 2603.266 L 1060.970 2602.728 1060.396 2600.114 C 1055.783 2579.096, 1049.391 2569.183, 1036.734 2563.421 C 1029.896 2560.307, 1013.663 2559.059, 1005.734 2561.036 M 2432 2589.500 L 2432 2600 2454.500 2600 L 2477 2600 2477 2589.500 L 2477 2579 2454.500 2579 L 2432 2579 2432 2589.500 M 912 2590.500 L 912 2601 935 2601 L 958 2601 958 2590.500 L 958 2580 935 2580 L 912 2580 912 2590.500 M 2721.500 2583.386 C 2699.446 2588.749, 2684.270 2613.062, 2687.811 2637.357 C 2695.456 2689.812, 2763.657 2692.412, 2774.667 2640.668 C 2781.946 2606.456, 2753.346 2575.642, 2721.500 2583.386 M 1198.287 2584.945 C 1150.808 2602.325, 1162.013 2678.500, 1212.048 2678.500 C 1259.811 2678.500, 1273.695 2608.190, 1230.164 2586.760 C 1221.713 2582.600, 1206.984 2581.761, 1198.287 2584.945 M 1204.951 2597.314 C 1188.735 2601.859, 1178.350 2618.892, 1181.143 2636.362 C 1186.373 2669.080, 1225.730 2675.638, 1240.219 2646.206 C 1252.464 2621.334, 1230.059 2590.275, 1204.951 2597.314 M 2721.233 2597.668 C 2704.452 2603.607, 2695.130 2628.048, 2703.135 2645.120 C 2718.617 2678.139, 2762.503 2666.961, 2762.499 2630 C 2762.496 2606.501, 2741.892 2590.357, 2721.233 2597.668 M 1204.852 2606.331 C 1178.703 2616.101, 1185.956 2657.231, 1213.582 2655.836 C 1243.010 2654.350, 1243.047 2607.871, 1213.622 2605.399 C 1210.667 2605.151, 1206.956 2605.545, 1204.852 2606.331 M 2721.195 2607.132 C 2705.940 2614.684, 2703.569 2638.247, 2716.857 2650.252 C 2731.270 2663.273, 2753.107 2652.997, 2754.759 2632.417 C 2756.349 2612.604, 2738.026 2598.801, 2721.195 2607.132 M 2432 2677 L 2432 2747 2454.500 2747 L 2477 2747 2477 2677 L 2477 2607 2454.500 2607 L 2432 2607 2432 2677 M 912 2678 L 912 2748 935 2748 L 958 2748 958 2678 L 958 2608 935 2608 L 912 2608 912 2678 M 1086.176 2622.070 C 1046.468 2629.884, 1039.995 2688.103, 1076.820 2706.232 C 1118.145 2726.577, 1153.551 2664.649, 1118.924 2632.590 C 1108.903 2623.313, 1097.871 2619.769, 1086.176 2622.070 M 2600.329 2622.874 C 2569.782 2634.222, 2561.856 2675.819, 2585.948 2698.354 C 2610.669 2721.478, 2648.525 2704.926, 2652.551 2669.232 C 2655.885 2639.674, 2626.153 2613.282, 2600.329 2622.874 M 2604.803 2633.351 C 2570.840 2642.844, 2576.958 2697.357, 2612 2697.475 C 2650.279 2697.603, 2652.585 2636.756, 2614.459 2632.581 C 2611.651 2632.274, 2607.463 2632.608, 2604.803 2633.351 M 1083.703 2634.442 C 1069.542 2639.493, 1062.358 2651.207, 1063.206 2667.860 C 1065.301 2709.012, 1122.319 2707.703, 1122.457 2666.500 C 1122.534 2643.438, 1103.235 2627.475, 1083.703 2634.442 M 2491 2722.500 L 2491 2776 2510 2776 L 2529 2776 2529 2722.500 L 2529 2669 2510 2669 L 2491 2669 2491 2722.500 M 971 2723.500 L 971 2777 990 2777 L 1009 2777 1009 2723.500 L 1009 2670 990 2670 L 971 2670 971 2723.500 M 2693.500 2712.533 C 2649.459 2717.757, 2650.291 2717.108, 2643.013 2751.917 C 2640.781 2762.597, 2638.689 2772.390, 2638.365 2773.680 L 2637.777 2776.026 2672.638 2775.763 L 2707.500 2775.500 2711.148 2761.500 C 2715.566 2744.547, 2718.579 2746.219, 2689.594 2749.540 C 2662.879 2752.601, 2662 2752.520, 2662 2747 C 2662 2742.341, 2663.769 2741.840, 2691.289 2738.710 C 2705.705 2737.070, 2717.628 2735.624, 2717.785 2735.496 C 2717.941 2735.368, 2719.426 2730.142, 2721.083 2723.882 C 2722.741 2717.622, 2724.331 2711.713, 2724.616 2710.750 C 2725.252 2708.604, 2727.913 2708.451, 2693.500 2712.533 M 1173.500 2713.181 C 1130.488 2718.214, 1130.907 2717.879, 1123.458 2753.200 C 1121.006 2764.825, 1119 2774.936, 1119 2775.668 C 1119 2776.751, 1125.432 2777, 1153.461 2777 L 1187.923 2777 1189.020 2772.750 C 1189.624 2770.412, 1191.216 2764.389, 1192.559 2759.365 C 1193.901 2754.341, 1195 2749.592, 1195 2748.811 C 1195 2747.624, 1191.069 2747.843, 1170.862 2750.158 C 1145.814 2753.027, 1143.752 2752.945, 1142.512 2749.039 C 1140.638 2743.133, 1141.866 2742.722, 1171 2739.518 C 1183.925 2738.096, 1195.439 2736.733, 1196.588 2736.488 C 1198.456 2736.090, 1205 2716.363, 1205 2711.128 C 1205 2709.617, 1202.633 2709.772, 1173.500 2713.181 M 2432 2765 L 2432 2776 2454.500 2776 L 2477 2776 2477 2765 L 2477 2754 2454.500 2754 L 2432 2754 2432 2765 M 912 2766 L 912 2777 935 2777 L 958 2777 958 2766 L 958 2755 935 2755 L 912 2755 912 2766 M 1888.500 2831.048 L 1858.500 2844.951 1858.229 2864.459 L 1857.958 2883.967 1860.729 2882.936 C 1871.429 2878.956, 1917.650 2860.546, 1918.270 2860.016 C 1918.694 2859.655, 1918.919 2849.861, 1918.770 2838.252 L 1918.500 2817.145 1888.500 2831.048 M 277.831 2890.953 C 174.133 2910.019, 186.382 3074.500, 291.500 3074.500 C 402.439 3074.500, 405.377 2894.317, 294.500 2890.506 C 287.900 2890.280, 280.399 2890.480, 277.831 2890.953 M 1161.164 2891.053 C 1056.365 2909.820, 1072.232 3078.490, 1178.444 3074.745 C 1287.542 3070.897, 1287.116 2894.143, 1178 2890.483 C 1171.675 2890.271, 1164.099 2890.527, 1161.164 2891.053 M 1872.669 2891.526 C 1828.318 2899.928, 1798.622 2943.974, 1803.949 2993.452 C 1816.379 3108.900, 1973.491 3098.746, 1973.416 2982.500 C 1973.378 2922.748, 1927.333 2881.170, 1872.669 2891.526 M 2239.047 2891.070 C 2147.783 2907.344, 2143.362 3050.035, 2233.410 3072.984 C 2295.796 3088.884, 2350.393 3029.412, 2336.226 2960.987 C 2326.413 2913.593, 2283.973 2883.058, 2239.047 2891.070 M 2642.500 2891.503 C 2551.953 2908.613, 2548.714 3051.541, 2638.386 3073.041 C 2700.403 3087.909, 2753.066 3032.120, 2741.385 2963.926 C 2732.881 2914.272, 2689.632 2882.597, 2642.500 2891.503 M 105.500 2891.685 C 53.213 2896.240, 20.874 2948.234, 33.409 3007.593 C 49.571 3084.130, 144.851 3100.501, 188.146 3034.179 L 193 3026.743 193 2997.872 L 193 2969 150.500 2969 L 108 2969 108 2989.479 L 108 3009.959 128.134 3010.229 L 148.267 3010.500 144.079 3014.687 C 113.396 3045.360, 69.768 3003.920, 88.589 2961.980 C 96.759 2943.776, 123.764 2937.941, 134.244 2952.116 L 136.376 2955 164.188 2955 C 195.883 2955, 193.046 2956.061, 190.478 2945.168 C 181.979 2909.117, 148.350 2887.951, 105.500 2891.685 M 3510 2892.015 C 3421.608 2904.133, 3413.935 3049.976, 3500.500 3072.575 C 3547.462 3084.835, 3602 3048.682, 3602 3005.290 L 3602 3003 3574.520 3003 L 3547.041 3003 3545.105 3006.750 C 3534.020 3028.227, 3505.955 3026.094, 3496.796 3003.079 C 3480.488 2962.102, 3521.067 2923.114, 3543.953 2957.771 L 3547.405 2963 3574.703 2963 L 3602 2963 3602 2960.612 C 3602 2920.983, 3554.894 2885.860, 3510 2892.015 M 394 2983.513 L 394 3074.160 444.250 3073.733 C 499.438 3073.263, 500.874 3073.121, 513.135 3066.932 C 544.492 3051.103, 545.018 2998.747, 513.969 2984.063 L 507.953 2981.218 513.255 2978.225 C 541.243 2962.430, 539.455 2914.426, 510.328 2899.666 C 498.720 2893.784, 497.777 2893.693, 443.750 2893.263 L 394 2892.866 394 2983.513 M 553 2983.500 L 553 3074 579.500 3074 L 606 3074 606 2983.500 L 606 2893 579.500 2893 L 553 2893 553 2983.500 M 628 2983.500 L 628 3074 683.500 3074 L 739 3074 739 3051 L 739 3028 710 3028 L 681 3028 681 3015.500 L 681 3003 706.500 3003 L 732 3003 732 2981.500 L 732 2960 706.500 2960 L 681 2960 681 2949.500 L 681 2939 710 2939 L 739 2939 739 2916 L 739 2893 683.500 2893 L 628 2893 628 2983.500 M 758 2983.436 L 758 3074 783.986 3074 L 809.972 3074 810.236 3042.761 L 810.500 3011.522 825.499 3042.761 L 840.497 3074 869.322 3074 C 892.122 3074, 898.079 3073.735, 897.823 3072.730 C 897.645 3072.032, 889.693 3056.477, 880.151 3038.163 C 870.609 3019.849, 862.959 3004.783, 863.151 3004.683 C 863.343 3004.582, 866.489 3003.013, 870.143 3001.196 C 908.154 2982.293, 906.670 2919.023, 867.773 2900.096 C 854.685 2893.727, 853.957 2893.649, 803.750 2893.243 L 758 2892.873 758 2983.436 M 913 2983.500 L 913 3074 939.490 3074 L 965.979 3074 966.240 3029.871 L 966.500 2985.742 993.078 3029.621 L 1019.655 3073.500 1045.828 3073.767 L 1072 3074.033 1072 2983.517 L 1072 2893 1046 2893 L 1020 2893 1019.987 2938.250 L 1019.975 2983.500 992.957 2938.250 L 965.940 2893 939.470 2893 L 913 2893 913 2983.500 M 1336.109 2982.750 C 1319.530 3032.113, 1305.972 3072.838, 1305.982 3073.250 C 1305.992 3073.662, 1318.356 3074, 1333.457 3074 L 1360.914 3074 1363.882 3064.250 C 1365.515 3058.887, 1367.405 3052.588, 1368.084 3050.250 L 1369.317 3046 1396.115 3046 L 1422.914 3046 1425.882 3055.750 C 1427.515 3061.113, 1429.405 3067.412, 1430.084 3069.750 L 1431.317 3074 1459.265 3074 C 1481.203 3074, 1487.115 3073.731, 1486.754 3072.750 C 1486.501 3072.063, 1472.916 3031.338, 1456.564 2982.250 L 1426.833 2893 1396.544 2893 L 1366.255 2893 1336.109 2982.750 M 1496.023 2942.750 C 1496.071 3048.841, 1510.350 3075, 1568.213 3075 C 1627.379 3075, 1642.964 3049.102, 1642.987 2950.750 L 1643 2893 1617.040 2893 L 1591.079 2893 1590.790 2948.750 C 1590.474 3009.432, 1590.561 3008.496, 1584.702 3014.868 C 1577.191 3023.038, 1560.058 3022.755, 1554.352 3014.367 C 1549.359 3007.025, 1549.518 3009.047, 1549.211 2949.250 L 1548.922 2893 1522.461 2893 L 1496 2893 1496.023 2942.750 M 1655 2916 L 1655 2939 1677 2939 L 1699 2939 1699 3006.500 L 1699 3074 1725 3074 L 1751 3074 1751 3006.500 L 1751 2939 1773 2939 L 1795 2939 1795 2916 L 1795 2893 1725 2893 L 1655 2893 1655 2916 M 1991 2983.484 L 1991 3074 2017.490 3074 L 2043.979 3074 2044.240 3029.871 L 2044.500 2985.742 2071.078 3029.621 L 2097.655 3073.500 2123.828 3073.767 L 2150 3074.033 2150 2983.517 L 2150 2893 2124.010 2893 L 2098.020 2893 2097.760 2937.930 L 2097.500 2982.861 2070.873 2938.180 L 2044.247 2893.500 2017.623 2893.234 L 1991 2892.967 1991 2983.484 M 2356 2983.486 L 2356 3074 2382.489 3074 L 2408.978 3074 2409.239 3032.271 L 2409.500 2990.542 2419.936 3027.521 C 2425.675 3047.859, 2430.999 3066.646, 2431.766 3069.269 L 2433.161 3074.037 2455.693 3073.769 L 2478.225 3073.500 2490.362 3030.662 L 2502.500 2987.825 2502.761 3030.912 L 2503.021 3074 2529.011 3074 L 2555 3074 2555 2983.486 L 2555 2892.972 2522.924 2893.236 L 2490.848 2893.500 2473.690 2945.750 C 2453.243 3008.015, 2458.878 3008.017, 2437.932 2945.737 L 2420.363 2893.500 2388.182 2893.236 L 2356 2892.972 2356 2983.486 M 2800 2983.500 L 2800 3074 2826.500 3074 L 2853 3074 2853.081 3031.750 L 2853.162 2989.500 2865.223 3031.768 L 2877.285 3074.037 2899.850 3073.768 L 2922.415 3073.500 2934.457 3031.006 L 2946.500 2988.512 2946.761 3031.256 L 2947.021 3074 2973.011 3074 L 2999 3074 2999 2983.500 L 2999 2893 2967.046 2893 L 2935.092 2893 2923.551 2928.250 C 2917.203 2947.637, 2909.372 2971.522, 2906.150 2981.327 L 2900.290 2999.154 2889.283 2966.827 C 2883.229 2949.047, 2875.185 2925.162, 2871.406 2913.750 L 2864.537 2893 2832.268 2893 L 2800 2893 2800 2983.500 M 3021.224 2954.750 L 3021.534 3016.500 3024.333 3025.500 C 3046.420 3096.505, 3150.042 3090.981, 3165.024 3018 C 3166.824 3009.230, 3166.975 3004.064, 3166.987 2950.750 L 3167 2893 3141.040 2893 L 3115.079 2893 3114.790 2948.750 C 3114.467 3010.800, 3114.604 3009.557, 3107.380 3016.114 C 3099.527 3023.242, 3083.743 3022.291, 3078.352 3014.367 C 3073.359 3007.025, 3073.518 3009.047, 3073.211 2949.250 L 3072.922 2893 3046.918 2893 L 3020.914 2893 3021.224 2954.750 M 3189 2983.500 L 3189 3074 3214.990 3074 L 3240.979 3074 3241.240 3029.598 L 3241.500 2985.196 3268.397 3029.598 L 3295.294 3074 3321.647 3074 L 3348 3074 3348 2983.500 L 3348 2893 3321.510 2893 L 3295.021 2893 3294.760 2937.693 L 3294.500 2982.386 3268 2937.719 L 3241.500 2893.053 3215.250 2893.027 L 3189 2893 3189 2983.500 M 3370 2983.500 L 3370 3074 3396.500 3074 L 3423 3074 3423 2983.500 L 3423 2893 3396.500 2893 L 3370 2893 3370 2983.500 M 3620 2983.500 L 3620 3074 3646.500 3074 L 3673 3074 3673 2983.500 L 3673 2893 3646.500 2893 L 3620 2893 3620 2983.500 M 3695 2983.434 L 3695 3074 3721.500 3074 L 3748 3074 3748 3045.653 L 3748 3017.307 3764.250 3016.678 C 3789.944 3015.684, 3801.570 3011.564, 3814 2999.046 C 3841.453 2971.398, 3834.024 2915.474, 3800.846 2900.031 C 3787.311 2893.731, 3786.607 2893.654, 3738.750 2893.243 L 3695 2892.868 3695 2983.434 M 3893.908 2895.735 C 3893.328 2897.256, 3879.844 2937.256, 3863.944 2984.624 C 3848.043 3031.992, 3834.753 3071.480, 3834.410 3072.374 C 3833.843 3073.851, 3836.337 3074, 3861.685 3074 L 3889.583 3074 3893.642 3060.250 L 3897.700 3046.500 3924.637 3046.234 L 3951.574 3045.969 3955.637 3059.734 L 3959.700 3073.500 3987.350 3073.766 C 4009.132 3073.975, 4014.998 3073.763, 4014.989 3072.766 C 4014.983 3072.070, 4001.534 3031.450, 3985.102 2982.500 L 3955.226 2893.500 3925.094 2893.235 L 3894.962 2892.971 3893.908 2895.735 M 4026 2983.500 L 4026 3074 4077 3074 L 4128 3074 4128 3052 L 4128 3030 4103.500 3030 L 4079 3030 4079 2961.500 L 4079 2893 4052.500 2893 L 4026 2893 4026 2983.500 M 447 2951 L 447 2963 458.351 2963 C 475.195 2963, 479 2960.878, 479 2951.486 C 479 2941.115, 475.604 2939, 458.953 2939 L 447 2939 447 2951 M 3748 2955 L 3748 2971 3757.032 2971 C 3772.794 2971, 3777.354 2967.144, 3776.785 2954.298 C 3776.267 2942.611, 3771.323 2939.017, 3755.750 2939.006 L 3748 2939 3748 2955 M 810 2956.100 L 810 2971.201 822.796 2970.850 C 840.057 2970.378, 844.113 2967.708, 844.211 2956.752 C 844.319 2944.736, 838.948 2941.057, 821.250 2941.022 L 810 2941 810 2956.100 M 281.372 2944.776 C 254.338 2954.443, 251.638 3005.278, 277.458 3018.482 C 301.212 3030.630, 322.394 3013.669, 322.394 2982.500 C 322.394 2953.191, 304.321 2936.571, 281.372 2944.776 M 1166.500 2944.338 C 1132.225 2955.695, 1137.076 3018.056, 1172.519 3021.714 C 1192.165 3023.742, 1205.305 3009.816, 1206.691 2985.500 C 1208.348 2956.432, 1189.196 2936.818, 1166.500 2944.338 M 1879.173 2944.419 C 1851.076 2953.609, 1848.760 3006.833, 1875.911 3019.375 C 1899.321 3030.188, 1919.441 3013.144, 1919.441 2982.500 C 1919.441 2953.194, 1902.198 2936.888, 1879.173 2944.419 M 2244.500 2944.338 C 2210.225 2955.695, 2215.076 3018.056, 2250.519 3021.714 C 2270.165 3023.742, 2283.305 3009.816, 2284.691 2985.500 C 2286.348 2956.432, 2267.196 2936.818, 2244.500 2944.338 M 2649.718 2944.029 C 2633.449 2948.130, 2623.555 2968.020, 2626.779 2990.142 C 2632.986 3032.724, 2683.126 3033.188, 2689.033 2990.719 C 2693.298 2960.052, 2674.538 2937.772, 2649.718 2944.029 M 1396.009 2957 C 1395.926 2957.275, 1392.826 2967.625, 1389.119 2980 L 1382.379 3002.500 1395.827 3002.779 C 1403.224 3002.933, 1409.460 3002.873, 1409.687 3002.647 C 1409.913 3002.420, 1407.144 2992.395, 1403.533 2980.367 C 1396.642 2957.417, 1396.249 2956.195, 1396.009 2957 M 3917.610 2979.610 C 3913.899 2992.032, 3911.056 3002.390, 3911.294 3002.627 C 3911.531 3002.864, 3917.784 3002.933, 3925.190 3002.779 L 3938.654 3002.500 3931.954 2980.211 C 3928.269 2967.951, 3925.053 2957.719, 3924.806 2957.473 C 3924.560 2957.226, 3921.322 2967.188, 3917.610 2979.610 M 447 3015 L 447 3027 461.050 3027 C 480.263 3027, 484.722 3023.992, 482.564 3012.488 C 481.097 3004.670, 476.927 3003, 458.875 3003 L 447 3003 447 3015" stroke="none" fill="#ffffff" fill-rule="evenodd"/><path d="" stroke="none" fill="#047e41" fill-rule="evenodd"/></svg>